<?xml version="1.0" encoding="utf-8" standalone="no"?>
<!DOCTYPE svg PUBLIC "-//W3C//DTD SVG 1.1//EN"
  "http://www.w3.org/Graphics/SVG/1.1/DTD/svg11.dtd">
<!-- Created with matplotlib (https://matplotlib.org/) -->
<svg height="720pt" version="1.1" viewBox="0 0 720 720" width="720pt" xmlns="http://www.w3.org/2000/svg" xmlns:xlink="http://www.w3.org/1999/xlink">
 <defs>
  <style type="text/css">
*{stroke-linecap:butt;stroke-linejoin:round;}
  </style>
 </defs>
 <g id="figure_1">
  <g id="patch_1">
   <path d="M 0 720 
L 720 720 
L 720 0 
L 0 0 
z
" style="fill:#ffffff;"/>
  </g>
  <g id="axes_1">
   <g id="patch_2">
    <path d="M 102.675 665.2 
L 705.7 665.2 
L 705.7 31.8 
L 102.675 31.8 
z
" style="fill:#ffffff;"/>
   </g>
   <g id="matplotlib.axis_1">
    <g id="xtick_1">
     <g id="line2d_1">
      <defs>
       <path d="M 0 0 
L 0 3.5 
" id="mcd9cbfb82f" style="stroke:#000000;stroke-width:0.8;"/>
      </defs>
      <g>
       <use style="stroke:#000000;stroke-width:0.8;" x="130.085227" xlink:href="#mcd9cbfb82f" y="665.2"/>
      </g>
     </g>
     <g id="text_1">
      <!-- 0 -->
      <defs>
       <path d="M 31.78125 66.40625 
Q 24.171875 66.40625 20.328125 58.90625 
Q 16.5 51.421875 16.5 36.375 
Q 16.5 21.390625 20.328125 13.890625 
Q 24.171875 6.390625 31.78125 6.390625 
Q 39.453125 6.390625 43.28125 13.890625 
Q 47.125 21.390625 47.125 36.375 
Q 47.125 51.421875 43.28125 58.90625 
Q 39.453125 66.40625 31.78125 66.40625 
z
M 31.78125 74.21875 
Q 44.046875 74.21875 50.515625 64.515625 
Q 56.984375 54.828125 56.984375 36.375 
Q 56.984375 17.96875 50.515625 8.265625 
Q 44.046875 -1.421875 31.78125 -1.421875 
Q 19.53125 -1.421875 13.0625 8.265625 
Q 6.59375 17.96875 6.59375 36.375 
Q 6.59375 54.828125 13.0625 64.515625 
Q 19.53125 74.21875 31.78125 74.21875 
z
" id="DejaVuSans-48"/>
      </defs>
      <g transform="translate(125.631477 682.837813)scale(0.14 -0.14)">
       <use xlink:href="#DejaVuSans-48"/>
      </g>
     </g>
    </g>
    <g id="xtick_2">
     <g id="line2d_2">
      <g>
       <use style="stroke:#000000;stroke-width:0.8;" x="240.83362" xlink:href="#mcd9cbfb82f" y="665.2"/>
      </g>
     </g>
     <g id="text_2">
      <!-- 20 -->
      <defs>
       <path d="M 19.1875 8.296875 
L 53.609375 8.296875 
L 53.609375 0 
L 7.328125 0 
L 7.328125 8.296875 
Q 12.9375 14.109375 22.625 23.890625 
Q 32.328125 33.6875 34.8125 36.53125 
Q 39.546875 41.84375 41.421875 45.53125 
Q 43.3125 49.21875 43.3125 52.78125 
Q 43.3125 58.59375 39.234375 62.25 
Q 35.15625 65.921875 28.609375 65.921875 
Q 23.96875 65.921875 18.8125 64.3125 
Q 13.671875 62.703125 7.8125 59.421875 
L 7.8125 69.390625 
Q 13.765625 71.78125 18.9375 73 
Q 24.125 74.21875 28.421875 74.21875 
Q 39.75 74.21875 46.484375 68.546875 
Q 53.21875 62.890625 53.21875 53.421875 
Q 53.21875 48.921875 51.53125 44.890625 
Q 49.859375 40.875 45.40625 35.40625 
Q 44.1875 33.984375 37.640625 27.21875 
Q 31.109375 20.453125 19.1875 8.296875 
z
" id="DejaVuSans-50"/>
      </defs>
      <g transform="translate(231.92612 682.837813)scale(0.14 -0.14)">
       <use xlink:href="#DejaVuSans-50"/>
       <use x="63.623047" xlink:href="#DejaVuSans-48"/>
      </g>
     </g>
    </g>
    <g id="xtick_3">
     <g id="line2d_3">
      <g>
       <use style="stroke:#000000;stroke-width:0.8;" x="351.582013" xlink:href="#mcd9cbfb82f" y="665.2"/>
      </g>
     </g>
     <g id="text_3">
      <!-- 40 -->
      <defs>
       <path d="M 37.796875 64.3125 
L 12.890625 25.390625 
L 37.796875 25.390625 
z
M 35.203125 72.90625 
L 47.609375 72.90625 
L 47.609375 25.390625 
L 58.015625 25.390625 
L 58.015625 17.1875 
L 47.609375 17.1875 
L 47.609375 0 
L 37.796875 0 
L 37.796875 17.1875 
L 4.890625 17.1875 
L 4.890625 26.703125 
z
" id="DejaVuSans-52"/>
      </defs>
      <g transform="translate(342.674513 682.837813)scale(0.14 -0.14)">
       <use xlink:href="#DejaVuSans-52"/>
       <use x="63.623047" xlink:href="#DejaVuSans-48"/>
      </g>
     </g>
    </g>
    <g id="xtick_4">
     <g id="line2d_4">
      <g>
       <use style="stroke:#000000;stroke-width:0.8;" x="462.330406" xlink:href="#mcd9cbfb82f" y="665.2"/>
      </g>
     </g>
     <g id="text_4">
      <!-- 60 -->
      <defs>
       <path d="M 33.015625 40.375 
Q 26.375 40.375 22.484375 35.828125 
Q 18.609375 31.296875 18.609375 23.390625 
Q 18.609375 15.53125 22.484375 10.953125 
Q 26.375 6.390625 33.015625 6.390625 
Q 39.65625 6.390625 43.53125 10.953125 
Q 47.40625 15.53125 47.40625 23.390625 
Q 47.40625 31.296875 43.53125 35.828125 
Q 39.65625 40.375 33.015625 40.375 
z
M 52.59375 71.296875 
L 52.59375 62.3125 
Q 48.875 64.0625 45.09375 64.984375 
Q 41.3125 65.921875 37.59375 65.921875 
Q 27.828125 65.921875 22.671875 59.328125 
Q 17.53125 52.734375 16.796875 39.40625 
Q 19.671875 43.65625 24.015625 45.921875 
Q 28.375 48.1875 33.59375 48.1875 
Q 44.578125 48.1875 50.953125 41.515625 
Q 57.328125 34.859375 57.328125 23.390625 
Q 57.328125 12.15625 50.6875 5.359375 
Q 44.046875 -1.421875 33.015625 -1.421875 
Q 20.359375 -1.421875 13.671875 8.265625 
Q 6.984375 17.96875 6.984375 36.375 
Q 6.984375 53.65625 15.1875 63.9375 
Q 23.390625 74.21875 37.203125 74.21875 
Q 40.921875 74.21875 44.703125 73.484375 
Q 48.484375 72.75 52.59375 71.296875 
z
" id="DejaVuSans-54"/>
      </defs>
      <g transform="translate(453.422906 682.837813)scale(0.14 -0.14)">
       <use xlink:href="#DejaVuSans-54"/>
       <use x="63.623047" xlink:href="#DejaVuSans-48"/>
      </g>
     </g>
    </g>
    <g id="xtick_5">
     <g id="line2d_5">
      <g>
       <use style="stroke:#000000;stroke-width:0.8;" x="573.078799" xlink:href="#mcd9cbfb82f" y="665.2"/>
      </g>
     </g>
     <g id="text_5">
      <!-- 80 -->
      <defs>
       <path d="M 31.78125 34.625 
Q 24.75 34.625 20.71875 30.859375 
Q 16.703125 27.09375 16.703125 20.515625 
Q 16.703125 13.921875 20.71875 10.15625 
Q 24.75 6.390625 31.78125 6.390625 
Q 38.8125 6.390625 42.859375 10.171875 
Q 46.921875 13.96875 46.921875 20.515625 
Q 46.921875 27.09375 42.890625 30.859375 
Q 38.875 34.625 31.78125 34.625 
z
M 21.921875 38.8125 
Q 15.578125 40.375 12.03125 44.71875 
Q 8.5 49.078125 8.5 55.328125 
Q 8.5 64.0625 14.71875 69.140625 
Q 20.953125 74.21875 31.78125 74.21875 
Q 42.671875 74.21875 48.875 69.140625 
Q 55.078125 64.0625 55.078125 55.328125 
Q 55.078125 49.078125 51.53125 44.71875 
Q 48 40.375 41.703125 38.8125 
Q 48.828125 37.15625 52.796875 32.3125 
Q 56.78125 27.484375 56.78125 20.515625 
Q 56.78125 9.90625 50.3125 4.234375 
Q 43.84375 -1.421875 31.78125 -1.421875 
Q 19.734375 -1.421875 13.25 4.234375 
Q 6.78125 9.90625 6.78125 20.515625 
Q 6.78125 27.484375 10.78125 32.3125 
Q 14.796875 37.15625 21.921875 38.8125 
z
M 18.3125 54.390625 
Q 18.3125 48.734375 21.84375 45.5625 
Q 25.390625 42.390625 31.78125 42.390625 
Q 38.140625 42.390625 41.71875 45.5625 
Q 45.3125 48.734375 45.3125 54.390625 
Q 45.3125 60.0625 41.71875 63.234375 
Q 38.140625 66.40625 31.78125 66.40625 
Q 25.390625 66.40625 21.84375 63.234375 
Q 18.3125 60.0625 18.3125 54.390625 
z
" id="DejaVuSans-56"/>
      </defs>
      <g transform="translate(564.171299 682.837813)scale(0.14 -0.14)">
       <use xlink:href="#DejaVuSans-56"/>
       <use x="63.623047" xlink:href="#DejaVuSans-48"/>
      </g>
     </g>
    </g>
    <g id="xtick_6">
     <g id="line2d_6">
      <g>
       <use style="stroke:#000000;stroke-width:0.8;" x="683.827192" xlink:href="#mcd9cbfb82f" y="665.2"/>
      </g>
     </g>
     <g id="text_6">
      <!-- 100 -->
      <defs>
       <path d="M 12.40625 8.296875 
L 28.515625 8.296875 
L 28.515625 63.921875 
L 10.984375 60.40625 
L 10.984375 69.390625 
L 28.421875 72.90625 
L 38.28125 72.90625 
L 38.28125 8.296875 
L 54.390625 8.296875 
L 54.390625 0 
L 12.40625 0 
z
" id="DejaVuSans-49"/>
      </defs>
      <g transform="translate(670.465942 682.837813)scale(0.14 -0.14)">
       <use xlink:href="#DejaVuSans-49"/>
       <use x="63.623047" xlink:href="#DejaVuSans-48"/>
       <use x="127.246094" xlink:href="#DejaVuSans-48"/>
      </g>
     </g>
    </g>
    <g id="text_7">
     <!-- Generation -->
     <defs>
      <path d="M 59.515625 10.40625 
L 59.515625 29.984375 
L 43.40625 29.984375 
L 43.40625 38.09375 
L 69.28125 38.09375 
L 69.28125 6.78125 
Q 63.578125 2.734375 56.6875 0.65625 
Q 49.8125 -1.421875 42 -1.421875 
Q 24.90625 -1.421875 15.25 8.5625 
Q 5.609375 18.5625 5.609375 36.375 
Q 5.609375 54.25 15.25 64.234375 
Q 24.90625 74.21875 42 74.21875 
Q 49.125 74.21875 55.546875 72.453125 
Q 61.96875 70.703125 67.390625 67.28125 
L 67.390625 56.78125 
Q 61.921875 61.421875 55.765625 63.765625 
Q 49.609375 66.109375 42.828125 66.109375 
Q 29.4375 66.109375 22.71875 58.640625 
Q 16.015625 51.171875 16.015625 36.375 
Q 16.015625 21.625 22.71875 14.15625 
Q 29.4375 6.6875 42.828125 6.6875 
Q 48.046875 6.6875 52.140625 7.59375 
Q 56.25 8.5 59.515625 10.40625 
z
" id="DejaVuSans-71"/>
      <path d="M 56.203125 29.59375 
L 56.203125 25.203125 
L 14.890625 25.203125 
Q 15.484375 15.921875 20.484375 11.0625 
Q 25.484375 6.203125 34.421875 6.203125 
Q 39.59375 6.203125 44.453125 7.46875 
Q 49.3125 8.734375 54.109375 11.28125 
L 54.109375 2.78125 
Q 49.265625 0.734375 44.1875 -0.34375 
Q 39.109375 -1.421875 33.890625 -1.421875 
Q 20.796875 -1.421875 13.15625 6.1875 
Q 5.515625 13.8125 5.515625 26.8125 
Q 5.515625 40.234375 12.765625 48.109375 
Q 20.015625 56 32.328125 56 
Q 43.359375 56 49.78125 48.890625 
Q 56.203125 41.796875 56.203125 29.59375 
z
M 47.21875 32.234375 
Q 47.125 39.59375 43.09375 43.984375 
Q 39.0625 48.390625 32.421875 48.390625 
Q 24.90625 48.390625 20.390625 44.140625 
Q 15.875 39.890625 15.1875 32.171875 
z
" id="DejaVuSans-101"/>
      <path d="M 54.890625 33.015625 
L 54.890625 0 
L 45.90625 0 
L 45.90625 32.71875 
Q 45.90625 40.484375 42.875 44.328125 
Q 39.84375 48.1875 33.796875 48.1875 
Q 26.515625 48.1875 22.3125 43.546875 
Q 18.109375 38.921875 18.109375 30.90625 
L 18.109375 0 
L 9.078125 0 
L 9.078125 54.6875 
L 18.109375 54.6875 
L 18.109375 46.1875 
Q 21.34375 51.125 25.703125 53.5625 
Q 30.078125 56 35.796875 56 
Q 45.21875 56 50.046875 50.171875 
Q 54.890625 44.34375 54.890625 33.015625 
z
" id="DejaVuSans-110"/>
      <path d="M 41.109375 46.296875 
Q 39.59375 47.171875 37.8125 47.578125 
Q 36.03125 48 33.890625 48 
Q 26.265625 48 22.1875 43.046875 
Q 18.109375 38.09375 18.109375 28.8125 
L 18.109375 0 
L 9.078125 0 
L 9.078125 54.6875 
L 18.109375 54.6875 
L 18.109375 46.1875 
Q 20.953125 51.171875 25.484375 53.578125 
Q 30.03125 56 36.53125 56 
Q 37.453125 56 38.578125 55.875 
Q 39.703125 55.765625 41.0625 55.515625 
z
" id="DejaVuSans-114"/>
      <path d="M 34.28125 27.484375 
Q 23.390625 27.484375 19.1875 25 
Q 14.984375 22.515625 14.984375 16.5 
Q 14.984375 11.71875 18.140625 8.90625 
Q 21.296875 6.109375 26.703125 6.109375 
Q 34.1875 6.109375 38.703125 11.40625 
Q 43.21875 16.703125 43.21875 25.484375 
L 43.21875 27.484375 
z
M 52.203125 31.203125 
L 52.203125 0 
L 43.21875 0 
L 43.21875 8.296875 
Q 40.140625 3.328125 35.546875 0.953125 
Q 30.953125 -1.421875 24.3125 -1.421875 
Q 15.921875 -1.421875 10.953125 3.296875 
Q 6 8.015625 6 15.921875 
Q 6 25.140625 12.171875 29.828125 
Q 18.359375 34.515625 30.609375 34.515625 
L 43.21875 34.515625 
L 43.21875 35.40625 
Q 43.21875 41.609375 39.140625 45 
Q 35.0625 48.390625 27.6875 48.390625 
Q 23 48.390625 18.546875 47.265625 
Q 14.109375 46.140625 10.015625 43.890625 
L 10.015625 52.203125 
Q 14.9375 54.109375 19.578125 55.046875 
Q 24.21875 56 28.609375 56 
Q 40.484375 56 46.34375 49.84375 
Q 52.203125 43.703125 52.203125 31.203125 
z
" id="DejaVuSans-97"/>
      <path d="M 18.3125 70.21875 
L 18.3125 54.6875 
L 36.8125 54.6875 
L 36.8125 47.703125 
L 18.3125 47.703125 
L 18.3125 18.015625 
Q 18.3125 11.328125 20.140625 9.421875 
Q 21.96875 7.515625 27.59375 7.515625 
L 36.8125 7.515625 
L 36.8125 0 
L 27.59375 0 
Q 17.1875 0 13.234375 3.875 
Q 9.28125 7.765625 9.28125 18.015625 
L 9.28125 47.703125 
L 2.6875 47.703125 
L 2.6875 54.6875 
L 9.28125 54.6875 
L 9.28125 70.21875 
z
" id="DejaVuSans-116"/>
      <path d="M 9.421875 54.6875 
L 18.40625 54.6875 
L 18.40625 0 
L 9.421875 0 
z
M 9.421875 75.984375 
L 18.40625 75.984375 
L 18.40625 64.59375 
L 9.421875 64.59375 
z
" id="DejaVuSans-105"/>
      <path d="M 30.609375 48.390625 
Q 23.390625 48.390625 19.1875 42.75 
Q 14.984375 37.109375 14.984375 27.296875 
Q 14.984375 17.484375 19.15625 11.84375 
Q 23.34375 6.203125 30.609375 6.203125 
Q 37.796875 6.203125 41.984375 11.859375 
Q 46.1875 17.53125 46.1875 27.296875 
Q 46.1875 37.015625 41.984375 42.703125 
Q 37.796875 48.390625 30.609375 48.390625 
z
M 30.609375 56 
Q 42.328125 56 49.015625 48.375 
Q 55.71875 40.765625 55.71875 27.296875 
Q 55.71875 13.875 49.015625 6.21875 
Q 42.328125 -1.421875 30.609375 -1.421875 
Q 18.84375 -1.421875 12.171875 6.21875 
Q 5.515625 13.875 5.515625 27.296875 
Q 5.515625 40.765625 12.171875 48.375 
Q 18.84375 56 30.609375 56 
z
" id="DejaVuSans-111"/>
     </defs>
     <g transform="translate(348.401563 704.94625)scale(0.2 -0.2)">
      <use xlink:href="#DejaVuSans-71"/>
      <use x="77.490234" xlink:href="#DejaVuSans-101"/>
      <use x="139.013672" xlink:href="#DejaVuSans-110"/>
      <use x="202.392578" xlink:href="#DejaVuSans-101"/>
      <use x="263.916016" xlink:href="#DejaVuSans-114"/>
      <use x="305.029297" xlink:href="#DejaVuSans-97"/>
      <use x="366.308594" xlink:href="#DejaVuSans-116"/>
      <use x="405.517578" xlink:href="#DejaVuSans-105"/>
      <use x="433.300781" xlink:href="#DejaVuSans-111"/>
      <use x="494.482422" xlink:href="#DejaVuSans-110"/>
     </g>
    </g>
   </g>
   <g id="matplotlib.axis_2">
    <g id="ytick_1">
     <g id="line2d_7">
      <defs>
       <path d="M 0 0 
L -3.5 0 
" id="m09622ed235" style="stroke:#000000;stroke-width:0.8;"/>
      </defs>
      <g>
       <use style="stroke:#000000;stroke-width:0.8;" x="102.675" xlink:href="#m09622ed235" y="654.894406"/>
      </g>
     </g>
     <g id="text_8">
      <!-- 8265000 -->
      <defs>
       <path d="M 10.796875 72.90625 
L 49.515625 72.90625 
L 49.515625 64.59375 
L 19.828125 64.59375 
L 19.828125 46.734375 
Q 21.96875 47.46875 24.109375 47.828125 
Q 26.265625 48.1875 28.421875 48.1875 
Q 40.625 48.1875 47.75 41.5 
Q 54.890625 34.8125 54.890625 23.390625 
Q 54.890625 11.625 47.5625 5.09375 
Q 40.234375 -1.421875 26.90625 -1.421875 
Q 22.3125 -1.421875 17.546875 -0.640625 
Q 12.796875 0.140625 7.71875 1.703125 
L 7.71875 11.625 
Q 12.109375 9.234375 16.796875 8.0625 
Q 21.484375 6.890625 26.703125 6.890625 
Q 35.15625 6.890625 40.078125 11.328125 
Q 45.015625 15.765625 45.015625 23.390625 
Q 45.015625 31 40.078125 35.4375 
Q 35.15625 39.890625 26.703125 39.890625 
Q 22.75 39.890625 18.8125 39.015625 
Q 14.890625 38.140625 10.796875 36.28125 
z
" id="DejaVuSans-53"/>
      </defs>
      <g transform="translate(33.3225 660.213313)scale(0.14 -0.14)">
       <use xlink:href="#DejaVuSans-56"/>
       <use x="63.623047" xlink:href="#DejaVuSans-50"/>
       <use x="127.246094" xlink:href="#DejaVuSans-54"/>
       <use x="190.869141" xlink:href="#DejaVuSans-53"/>
       <use x="254.492188" xlink:href="#DejaVuSans-48"/>
       <use x="318.115234" xlink:href="#DejaVuSans-48"/>
       <use x="381.738281" xlink:href="#DejaVuSans-48"/>
      </g>
     </g>
    </g>
    <g id="ytick_2">
     <g id="line2d_8">
      <g>
       <use style="stroke:#000000;stroke-width:0.8;" x="102.675" xlink:href="#m09622ed235" y="549.384487"/>
      </g>
     </g>
     <g id="text_9">
      <!-- 8270000 -->
      <defs>
       <path d="M 8.203125 72.90625 
L 55.078125 72.90625 
L 55.078125 68.703125 
L 28.609375 0 
L 18.3125 0 
L 43.21875 64.59375 
L 8.203125 64.59375 
z
" id="DejaVuSans-55"/>
      </defs>
      <g transform="translate(33.3225 554.703393)scale(0.14 -0.14)">
       <use xlink:href="#DejaVuSans-56"/>
       <use x="63.623047" xlink:href="#DejaVuSans-50"/>
       <use x="127.246094" xlink:href="#DejaVuSans-55"/>
       <use x="190.869141" xlink:href="#DejaVuSans-48"/>
       <use x="254.492188" xlink:href="#DejaVuSans-48"/>
       <use x="318.115234" xlink:href="#DejaVuSans-48"/>
       <use x="381.738281" xlink:href="#DejaVuSans-48"/>
      </g>
     </g>
    </g>
    <g id="ytick_3">
     <g id="line2d_9">
      <g>
       <use style="stroke:#000000;stroke-width:0.8;" x="102.675" xlink:href="#m09622ed235" y="443.874567"/>
      </g>
     </g>
     <g id="text_10">
      <!-- 8275000 -->
      <g transform="translate(33.3225 449.193474)scale(0.14 -0.14)">
       <use xlink:href="#DejaVuSans-56"/>
       <use x="63.623047" xlink:href="#DejaVuSans-50"/>
       <use x="127.246094" xlink:href="#DejaVuSans-55"/>
       <use x="190.869141" xlink:href="#DejaVuSans-53"/>
       <use x="254.492188" xlink:href="#DejaVuSans-48"/>
       <use x="318.115234" xlink:href="#DejaVuSans-48"/>
       <use x="381.738281" xlink:href="#DejaVuSans-48"/>
      </g>
     </g>
    </g>
    <g id="ytick_4">
     <g id="line2d_10">
      <g>
       <use style="stroke:#000000;stroke-width:0.8;" x="102.675" xlink:href="#m09622ed235" y="338.364648"/>
      </g>
     </g>
     <g id="text_11">
      <!-- 8280000 -->
      <g transform="translate(33.3225 343.683554)scale(0.14 -0.14)">
       <use xlink:href="#DejaVuSans-56"/>
       <use x="63.623047" xlink:href="#DejaVuSans-50"/>
       <use x="127.246094" xlink:href="#DejaVuSans-56"/>
       <use x="190.869141" xlink:href="#DejaVuSans-48"/>
       <use x="254.492188" xlink:href="#DejaVuSans-48"/>
       <use x="318.115234" xlink:href="#DejaVuSans-48"/>
       <use x="381.738281" xlink:href="#DejaVuSans-48"/>
      </g>
     </g>
    </g>
    <g id="ytick_5">
     <g id="line2d_11">
      <g>
       <use style="stroke:#000000;stroke-width:0.8;" x="102.675" xlink:href="#m09622ed235" y="232.854728"/>
      </g>
     </g>
     <g id="text_12">
      <!-- 8285000 -->
      <g transform="translate(33.3225 238.173635)scale(0.14 -0.14)">
       <use xlink:href="#DejaVuSans-56"/>
       <use x="63.623047" xlink:href="#DejaVuSans-50"/>
       <use x="127.246094" xlink:href="#DejaVuSans-56"/>
       <use x="190.869141" xlink:href="#DejaVuSans-53"/>
       <use x="254.492188" xlink:href="#DejaVuSans-48"/>
       <use x="318.115234" xlink:href="#DejaVuSans-48"/>
       <use x="381.738281" xlink:href="#DejaVuSans-48"/>
      </g>
     </g>
    </g>
    <g id="ytick_6">
     <g id="line2d_12">
      <g>
       <use style="stroke:#000000;stroke-width:0.8;" x="102.675" xlink:href="#m09622ed235" y="127.344809"/>
      </g>
     </g>
     <g id="text_13">
      <!-- 8290000 -->
      <defs>
       <path d="M 10.984375 1.515625 
L 10.984375 10.5 
Q 14.703125 8.734375 18.5 7.8125 
Q 22.3125 6.890625 25.984375 6.890625 
Q 35.75 6.890625 40.890625 13.453125 
Q 46.046875 20.015625 46.78125 33.40625 
Q 43.953125 29.203125 39.59375 26.953125 
Q 35.25 24.703125 29.984375 24.703125 
Q 19.046875 24.703125 12.671875 31.3125 
Q 6.296875 37.9375 6.296875 49.421875 
Q 6.296875 60.640625 12.9375 67.421875 
Q 19.578125 74.21875 30.609375 74.21875 
Q 43.265625 74.21875 49.921875 64.515625 
Q 56.59375 54.828125 56.59375 36.375 
Q 56.59375 19.140625 48.40625 8.859375 
Q 40.234375 -1.421875 26.421875 -1.421875 
Q 22.703125 -1.421875 18.890625 -0.6875 
Q 15.09375 0.046875 10.984375 1.515625 
z
M 30.609375 32.421875 
Q 37.25 32.421875 41.125 36.953125 
Q 45.015625 41.5 45.015625 49.421875 
Q 45.015625 57.28125 41.125 61.84375 
Q 37.25 66.40625 30.609375 66.40625 
Q 23.96875 66.40625 20.09375 61.84375 
Q 16.21875 57.28125 16.21875 49.421875 
Q 16.21875 41.5 20.09375 36.953125 
Q 23.96875 32.421875 30.609375 32.421875 
z
" id="DejaVuSans-57"/>
      </defs>
      <g transform="translate(33.3225 132.663715)scale(0.14 -0.14)">
       <use xlink:href="#DejaVuSans-56"/>
       <use x="63.623047" xlink:href="#DejaVuSans-50"/>
       <use x="127.246094" xlink:href="#DejaVuSans-57"/>
       <use x="190.869141" xlink:href="#DejaVuSans-48"/>
       <use x="254.492188" xlink:href="#DejaVuSans-48"/>
       <use x="318.115234" xlink:href="#DejaVuSans-48"/>
       <use x="381.738281" xlink:href="#DejaVuSans-48"/>
      </g>
     </g>
    </g>
    <g id="text_14">
     <!-- Fitness -->
     <defs>
      <path d="M 9.8125 72.90625 
L 51.703125 72.90625 
L 51.703125 64.59375 
L 19.671875 64.59375 
L 19.671875 43.109375 
L 48.578125 43.109375 
L 48.578125 34.8125 
L 19.671875 34.8125 
L 19.671875 0 
L 9.8125 0 
z
" id="DejaVuSans-70"/>
      <path d="M 44.28125 53.078125 
L 44.28125 44.578125 
Q 40.484375 46.53125 36.375 47.5 
Q 32.28125 48.484375 27.875 48.484375 
Q 21.1875 48.484375 17.84375 46.4375 
Q 14.5 44.390625 14.5 40.28125 
Q 14.5 37.15625 16.890625 35.375 
Q 19.28125 33.59375 26.515625 31.984375 
L 29.59375 31.296875 
Q 39.15625 29.25 43.1875 25.515625 
Q 47.21875 21.78125 47.21875 15.09375 
Q 47.21875 7.46875 41.1875 3.015625 
Q 35.15625 -1.421875 24.609375 -1.421875 
Q 20.21875 -1.421875 15.453125 -0.5625 
Q 10.6875 0.296875 5.421875 2 
L 5.421875 11.28125 
Q 10.40625 8.6875 15.234375 7.390625 
Q 20.0625 6.109375 24.8125 6.109375 
Q 31.15625 6.109375 34.5625 8.28125 
Q 37.984375 10.453125 37.984375 14.40625 
Q 37.984375 18.0625 35.515625 20.015625 
Q 33.0625 21.96875 24.703125 23.78125 
L 21.578125 24.515625 
Q 13.234375 26.265625 9.515625 29.90625 
Q 5.8125 33.546875 5.8125 39.890625 
Q 5.8125 47.609375 11.28125 51.796875 
Q 16.75 56 26.8125 56 
Q 31.78125 56 36.171875 55.265625 
Q 40.578125 54.546875 44.28125 53.078125 
z
" id="DejaVuSans-115"/>
     </defs>
     <g transform="translate(25.163125 383.848438)rotate(-90)scale(0.2 -0.2)">
      <use xlink:href="#DejaVuSans-70"/>
      <use x="57.410156" xlink:href="#DejaVuSans-105"/>
      <use x="85.193359" xlink:href="#DejaVuSans-116"/>
      <use x="124.402344" xlink:href="#DejaVuSans-110"/>
      <use x="187.78125" xlink:href="#DejaVuSans-101"/>
      <use x="249.304688" xlink:href="#DejaVuSans-115"/>
      <use x="301.404297" xlink:href="#DejaVuSans-115"/>
     </g>
    </g>
   </g>
   <g id="line2d_13">
    <path clip-path="url(#pe1dc598e80)" d="M 130.085227 234.815684 
L 135.622647 323.314361 
L 141.160067 620.460672 
L 146.697486 620.460672 
L 152.234906 620.460672 
L 157.772326 620.460672 
L 163.309745 620.460672 
L 168.847165 620.460672 
L 174.384584 620.460672 
L 179.922004 620.460672 
L 185.459424 620.460672 
L 190.996843 620.460672 
L 196.534263 620.460672 
L 202.071683 620.460672 
L 207.609102 626.717748 
L 213.146522 626.717748 
L 218.683942 626.717748 
L 224.221361 626.717748 
L 229.758781 626.717748 
L 235.296201 626.717748 
L 240.83362 626.717748 
L 246.37104 626.717748 
L 251.90846 626.717748 
L 257.445879 626.717748 
L 262.983299 626.717748 
L 268.520719 626.717748 
L 274.058138 626.717748 
L 279.595558 626.717748 
L 285.132978 627.94128 
L 290.670397 627.94128 
L 296.207817 627.94128 
L 301.745236 627.94128 
L 307.282656 630.65596 
L 312.820076 630.65596 
L 318.357495 630.65596 
L 323.894915 631.203626 
L 329.432335 631.203626 
L 334.969754 631.203626 
L 340.507174 631.203626 
L 346.044594 631.631133 
L 351.582013 631.631133 
L 357.119433 631.631133 
L 362.656853 631.631133 
L 368.194272 631.631133 
L 373.731692 631.631133 
L 379.269112 633.808519 
L 384.806531 633.808519 
L 390.343951 633.808519 
L 395.881371 633.808519 
L 401.41879 633.808519 
L 406.95621 633.808519 
L 412.493629 633.808519 
L 418.031049 633.808519 
L 423.568469 633.808519 
L 429.105888 633.808519 
L 434.643308 634.117338 
L 440.180728 634.117338 
L 445.718147 634.117338 
L 451.255567 634.117338 
L 456.792987 634.117338 
L 462.330406 634.530915 
L 467.867826 634.530915 
L 473.405246 634.530915 
L 478.942665 634.530915 
L 484.480085 634.530915 
L 490.017505 634.530915 
L 495.554924 634.530915 
L 501.092344 634.530915 
L 506.629764 634.530915 
L 512.167183 634.530915 
L 517.704603 634.530915 
L 523.242022 634.530915 
L 528.779442 634.530915 
L 534.316862 634.530915 
L 539.854281 634.530915 
L 545.391701 634.820671 
L 550.929121 634.820671 
L 556.46654 634.820671 
L 562.00396 634.820671 
L 567.54138 634.820671 
L 573.078799 634.820671 
L 578.616219 634.820671 
L 584.153639 634.820671 
L 589.691058 634.820671 
L 595.228478 634.820671 
L 600.765898 634.820671 
L 606.303317 634.820671 
L 611.840737 634.924667 
L 617.378157 634.924667 
L 622.915576 634.924667 
L 628.452996 634.924667 
L 633.990416 634.924667 
L 639.527835 634.924667 
L 645.065255 634.924667 
L 650.602674 634.924667 
L 656.140094 634.924667 
L 661.677514 634.924667 
L 667.214933 634.924667 
L 672.752353 634.924667 
L 678.289773 634.924667 
" style="fill:none;stroke:#1f77b4;stroke-linecap:square;stroke-width:1.5;"/>
   </g>
   <g id="line2d_14">
    <path clip-path="url(#pe1dc598e80)" d="M 130.085227 532.386382 
L 135.622647 532.386382 
L 141.160067 555.173927 
L 146.697486 555.173927 
L 152.234906 610.634684 
L 157.772326 610.634684 
L 163.309745 610.634684 
L 168.847165 610.634684 
L 174.384584 610.634684 
L 179.922004 610.634684 
L 185.459424 610.634684 
L 190.996843 610.634684 
L 196.534263 610.634684 
L 202.071683 610.634684 
L 207.609102 610.634684 
L 213.146522 610.634684 
L 218.683942 610.634684 
L 224.221361 610.634684 
L 229.758781 610.634684 
L 235.296201 610.634684 
L 240.83362 610.634684 
L 246.37104 610.634684 
L 251.90846 610.634684 
L 257.445879 616.842209 
L 262.983299 616.842209 
L 268.520719 616.842209 
L 274.058138 616.842209 
L 279.595558 616.842209 
L 285.132978 616.842209 
L 290.670397 616.842209 
L 296.207817 617.513497 
L 301.745236 617.513497 
L 307.282656 617.513497 
L 312.820076 617.513497 
L 318.357495 617.513497 
L 323.894915 617.513497 
L 329.432335 617.513497 
L 334.969754 632.556847 
L 340.507174 632.556847 
L 346.044594 632.556847 
L 351.582013 632.556847 
L 357.119433 632.556847 
L 362.656853 632.556847 
L 368.194272 632.556847 
L 373.731692 632.556847 
L 379.269112 632.556847 
L 384.806531 632.556847 
L 390.343951 632.556847 
L 395.881371 632.556847 
L 401.41879 632.556847 
L 406.95621 632.556847 
L 412.493629 632.556847 
L 418.031049 632.556847 
L 423.568469 632.556847 
L 429.105888 632.556847 
L 434.643308 632.556847 
L 440.180728 632.556847 
L 445.718147 632.556847 
L 451.255567 632.556847 
L 456.792987 632.556847 
L 462.330406 632.606802 
L 467.867826 632.606802 
L 473.405246 632.606802 
L 478.942665 632.606802 
L 484.480085 632.606802 
L 490.017505 632.606802 
L 495.554924 632.606802 
L 501.092344 632.606802 
L 506.629764 632.606802 
L 512.167183 632.606802 
L 517.704603 632.606802 
L 523.242022 632.606802 
L 528.779442 632.606802 
L 534.316862 632.606802 
L 539.854281 632.606802 
L 545.391701 632.606802 
L 550.929121 632.606802 
L 556.46654 632.606802 
L 562.00396 632.606802 
L 567.54138 632.606802 
L 573.078799 632.606802 
L 578.616219 632.606802 
L 584.153639 632.606802 
L 589.691058 632.606802 
L 595.228478 632.606802 
L 600.765898 632.606802 
L 606.303317 632.606802 
L 611.840737 632.606802 
L 617.378157 632.606802 
L 622.915576 632.606802 
L 628.452996 632.606802 
L 633.990416 632.606802 
L 639.527835 632.606802 
L 645.065255 632.606802 
L 650.602674 632.606802 
L 656.140094 632.606802 
L 661.677514 632.606802 
L 667.214933 632.606802 
L 672.752353 632.606802 
L 678.289773 632.606802 
" style="fill:none;stroke:#ff7f0e;stroke-linecap:square;stroke-width:1.5;"/>
   </g>
   <g id="line2d_15">
    <path clip-path="url(#pe1dc598e80)" d="M 130.085227 613.591147 
L 135.622647 613.591147 
L 141.160067 615.72276 
L 146.697486 615.72276 
L 152.234906 615.72276 
L 157.772326 615.72276 
L 163.309745 615.72276 
L 168.847165 615.72276 
L 174.384584 615.72276 
L 179.922004 615.72276 
L 185.459424 615.72276 
L 190.996843 615.72276 
L 196.534263 615.72276 
L 202.071683 627.854002 
L 207.609102 627.854002 
L 213.146522 627.854002 
L 218.683942 627.854002 
L 224.221361 627.854002 
L 229.758781 627.854002 
L 235.296201 627.854002 
L 240.83362 627.854002 
L 246.37104 627.854002 
L 251.90846 627.854002 
L 257.445879 627.854002 
L 262.983299 630.254015 
L 268.520719 630.715438 
L 274.058138 630.715438 
L 279.595558 630.960437 
L 285.132978 631.092483 
L 290.670397 631.667216 
L 296.207817 631.667216 
L 301.745236 632.852435 
L 307.282656 632.852435 
L 312.820076 632.852435 
L 318.357495 632.852435 
L 323.894915 633.654413 
L 329.432335 633.654413 
L 334.969754 633.654413 
L 340.507174 633.654413 
L 346.044594 633.654413 
L 351.582013 633.654413 
L 357.119433 633.654413 
L 362.656853 633.654413 
L 368.194272 633.654413 
L 373.731692 633.654413 
L 379.269112 633.654413 
L 384.806531 633.920941 
L 390.343951 633.920941 
L 395.881371 633.920941 
L 401.41879 633.920941 
L 406.95621 633.920941 
L 412.493629 633.920941 
L 418.031049 634.186496 
L 423.568469 634.186496 
L 429.105888 634.186496 
L 434.643308 634.186496 
L 440.180728 634.186496 
L 445.718147 634.541635 
L 451.255567 634.541635 
L 456.792987 634.541635 
L 462.330406 634.707089 
L 467.867826 634.707089 
L 473.405246 634.707089 
L 478.942665 634.707089 
L 484.480085 634.707089 
L 490.017505 634.707089 
L 495.554924 634.707089 
L 501.092344 634.741331 
L 506.629764 634.741331 
L 512.167183 634.741331 
L 517.704603 634.75264 
L 523.242022 634.75264 
L 528.779442 634.914659 
L 534.316862 634.914659 
L 539.854281 634.91845 
L 545.391701 634.91845 
L 550.929121 634.91845 
L 556.46654 634.91845 
L 562.00396 634.934743 
L 567.54138 634.934743 
L 573.078799 634.993294 
L 578.616219 635.011929 
L 584.153639 635.011929 
L 589.691058 635.011929 
L 595.228478 635.011929 
L 600.765898 635.011929 
L 606.303317 635.011929 
L 611.840737 635.011929 
L 617.378157 635.011929 
L 622.915576 635.011929 
L 628.452996 635.011929 
L 633.990416 635.011929 
L 639.527835 635.011929 
L 645.065255 635.011929 
L 650.602674 635.011929 
L 656.140094 635.011929 
L 661.677514 635.011929 
L 667.214933 635.011929 
L 672.752353 635.011929 
L 678.289773 635.011929 
" style="fill:none;stroke:#2ca02c;stroke-linecap:square;stroke-width:1.5;"/>
   </g>
   <g id="line2d_16">
    <path clip-path="url(#pe1dc598e80)" d="M 130.085227 539.197869 
L 135.622647 539.197869 
L 141.160067 595.478171 
L 146.697486 610.709814 
L 152.234906 611.892398 
L 157.772326 611.892398 
L 163.309745 611.892398 
L 168.847165 611.892398 
L 174.384584 611.892398 
L 179.922004 611.892398 
L 185.459424 630.966234 
L 190.996843 630.966234 
L 196.534263 630.966234 
L 202.071683 630.966234 
L 207.609102 630.966234 
L 213.146522 630.966234 
L 218.683942 630.966234 
L 224.221361 630.966234 
L 229.758781 630.966234 
L 235.296201 630.966234 
L 240.83362 630.966234 
L 246.37104 630.966234 
L 251.90846 630.966234 
L 257.445879 630.966234 
L 262.983299 630.966234 
L 268.520719 631.536357 
L 274.058138 631.536357 
L 279.595558 631.536357 
L 285.132978 632.092355 
L 290.670397 632.092355 
L 296.207817 632.092355 
L 301.745236 632.092355 
L 307.282656 632.092355 
L 312.820076 632.092355 
L 318.357495 632.092355 
L 323.894915 633.661193 
L 329.432335 633.661193 
L 334.969754 633.661193 
L 340.507174 633.661193 
L 346.044594 633.661193 
L 351.582013 633.661193 
L 357.119433 633.661193 
L 362.656853 633.661193 
L 368.194272 633.661193 
L 373.731692 633.661193 
L 379.269112 633.661193 
L 384.806531 633.661193 
L 390.343951 633.661193 
L 395.881371 633.661193 
L 401.41879 633.661193 
L 406.95621 633.661193 
L 412.493629 634.067386 
L 418.031049 634.067386 
L 423.568469 634.067386 
L 429.105888 634.067386 
L 434.643308 634.067386 
L 440.180728 634.067386 
L 445.718147 634.226324 
L 451.255567 634.226324 
L 456.792987 634.226324 
L 462.330406 634.226324 
L 467.867826 634.226324 
L 473.405246 634.226324 
L 478.942665 634.399613 
L 484.480085 634.399613 
L 490.017505 634.399613 
L 495.554924 634.399613 
L 501.092344 634.399613 
L 506.629764 634.399613 
L 512.167183 634.399613 
L 517.704603 634.399613 
L 523.242022 634.399613 
L 528.779442 634.407064 
L 534.316862 634.407064 
L 539.854281 634.407064 
L 545.391701 634.533569 
L 550.929121 634.533569 
L 556.46654 634.533569 
L 562.00396 634.543567 
L 567.54138 634.543567 
L 573.078799 634.543567 
L 578.616219 634.675146 
L 584.153639 634.675146 
L 589.691058 635.001733 
L 595.228478 635.001733 
L 600.765898 635.001733 
L 606.303317 635.001733 
L 611.840737 635.001733 
L 617.378157 635.001733 
L 622.915576 635.001733 
L 628.452996 635.001733 
L 633.990416 635.001733 
L 639.527835 635.001733 
L 645.065255 635.001733 
L 650.602674 635.001733 
L 656.140094 635.001733 
L 661.677514 635.001733 
L 667.214933 635.001733 
L 672.752353 635.001733 
L 678.289773 635.001733 
" style="fill:none;stroke:#d62728;stroke-linecap:square;stroke-width:1.5;"/>
   </g>
   <g id="line2d_17">
    <path clip-path="url(#pe1dc598e80)" d="M 130.085227 636.077886 
L 135.622647 636.077886 
L 141.160067 636.077886 
L 146.697486 636.077886 
L 152.234906 636.077886 
L 157.772326 636.077886 
L 163.309745 636.077886 
L 168.847165 636.077886 
L 174.384584 636.077886 
L 179.922004 636.077886 
L 185.459424 636.077886 
L 190.996843 636.077886 
L 196.534263 636.077886 
L 202.071683 636.077886 
L 207.609102 636.077886 
L 213.146522 636.077886 
L 218.683942 636.077886 
L 224.221361 636.077886 
L 229.758781 636.077886 
L 235.296201 636.077886 
L 240.83362 636.077886 
L 246.37104 636.077886 
L 251.90846 636.077886 
L 257.445879 636.077886 
L 262.983299 636.077886 
L 268.520719 636.077886 
L 274.058138 636.077886 
L 279.595558 636.077886 
L 285.132978 636.077886 
L 290.670397 636.077886 
L 296.207817 636.077886 
L 301.745236 636.077886 
L 307.282656 636.077886 
L 312.820076 636.077886 
L 318.357495 636.077886 
L 323.894915 636.077886 
L 329.432335 636.077886 
L 334.969754 636.077886 
L 340.507174 636.077886 
L 346.044594 636.077886 
L 351.582013 636.077886 
L 357.119433 636.077886 
L 362.656853 636.077886 
L 368.194272 636.077886 
L 373.731692 636.077886 
L 379.269112 636.077886 
L 384.806531 636.077886 
L 390.343951 636.077886 
L 395.881371 636.077886 
L 401.41879 636.077886 
L 406.95621 636.077886 
L 412.493629 636.077886 
L 418.031049 636.077886 
L 423.568469 636.077886 
L 429.105888 636.077886 
L 434.643308 636.077886 
L 440.180728 636.077886 
L 445.718147 636.077886 
L 451.255567 636.077886 
L 456.792987 636.077886 
L 462.330406 636.077886 
L 467.867826 636.077886 
L 473.405246 636.077886 
L 478.942665 636.077886 
L 484.480085 636.077886 
L 490.017505 636.077886 
L 495.554924 636.077886 
L 501.092344 636.077886 
L 506.629764 636.077886 
L 512.167183 636.077886 
L 517.704603 636.077886 
L 523.242022 636.077886 
L 528.779442 636.077886 
L 534.316862 636.077886 
L 539.854281 636.077886 
L 545.391701 636.077886 
L 550.929121 636.077886 
L 556.46654 636.077886 
L 562.00396 636.077886 
L 567.54138 636.077886 
L 573.078799 636.077886 
L 578.616219 636.077886 
L 584.153639 636.077886 
L 589.691058 636.077886 
L 595.228478 636.077886 
L 600.765898 636.077886 
L 606.303317 636.077886 
L 611.840737 636.077886 
L 617.378157 636.077886 
L 622.915576 636.077886 
L 628.452996 636.077886 
L 633.990416 636.077886 
L 639.527835 636.077886 
L 645.065255 636.077886 
L 650.602674 636.077886 
L 656.140094 636.077886 
L 661.677514 636.077886 
L 667.214933 636.077886 
L 672.752353 636.077886 
L 678.289773 636.077886 
" style="fill:none;stroke:#9467bd;stroke-linecap:square;stroke-width:1.5;"/>
   </g>
   <g id="line2d_18">
    <path clip-path="url(#pe1dc598e80)" d="M 130.085227 60.590909 
L 135.622647 401.12936 
L 141.160067 416.218254 
L 146.697486 600.587223 
L 152.234906 600.587223 
L 157.772326 600.587223 
L 163.309745 600.587223 
L 168.847165 600.587223 
L 174.384584 625.486877 
L 179.922004 625.486877 
L 185.459424 625.486877 
L 190.996843 625.486877 
L 196.534263 625.486877 
L 202.071683 625.486877 
L 207.609102 625.486877 
L 213.146522 625.486877 
L 218.683942 625.486877 
L 224.221361 625.486877 
L 229.758781 625.486877 
L 235.296201 625.486877 
L 240.83362 625.486877 
L 246.37104 625.486877 
L 251.90846 625.486877 
L 257.445879 625.486877 
L 262.983299 625.486877 
L 268.520719 625.486877 
L 274.058138 625.486877 
L 279.595558 625.486877 
L 285.132978 625.486877 
L 290.670397 625.486877 
L 296.207817 625.486877 
L 301.745236 625.486877 
L 307.282656 625.486877 
L 312.820076 625.486877 
L 318.357495 626.260231 
L 323.894915 626.260231 
L 329.432335 626.260231 
L 334.969754 626.260231 
L 340.507174 626.260231 
L 346.044594 626.260231 
L 351.582013 626.260231 
L 357.119433 626.260231 
L 362.656853 626.260231 
L 368.194272 626.260231 
L 373.731692 626.853403 
L 379.269112 627.377649 
L 384.806531 630.642636 
L 390.343951 630.642636 
L 395.881371 630.642636 
L 401.41879 630.642636 
L 406.95621 630.642636 
L 412.493629 630.642636 
L 418.031049 630.642636 
L 423.568469 630.642636 
L 429.105888 630.642636 
L 434.643308 630.642636 
L 440.180728 630.642636 
L 445.718147 630.642636 
L 451.255567 630.642636 
L 456.792987 630.642636 
L 462.330406 630.642636 
L 467.867826 631.624119 
L 473.405246 631.624119 
L 478.942665 631.624119 
L 484.480085 631.624119 
L 490.017505 632.901977 
L 495.554924 632.901977 
L 501.092344 632.901977 
L 506.629764 632.901977 
L 512.167183 632.901977 
L 517.704603 632.901977 
L 523.242022 632.901977 
L 528.779442 632.901977 
L 534.316862 632.901977 
L 539.854281 632.901977 
L 545.391701 632.901977 
L 550.929121 632.901977 
L 556.46654 632.901977 
L 562.00396 632.901977 
L 567.54138 632.901977 
L 573.078799 632.901977 
L 578.616219 632.901977 
L 584.153639 632.901977 
L 589.691058 632.901977 
L 595.228478 632.901977 
L 600.765898 633.201141 
L 606.303317 633.201141 
L 611.840737 633.209939 
L 617.378157 633.501552 
L 622.915576 633.501552 
L 628.452996 633.501552 
L 633.990416 633.501552 
L 639.527835 633.501552 
L 645.065255 633.978196 
L 650.602674 633.978196 
L 656.140094 633.978196 
L 661.677514 633.978196 
L 667.214933 634.000848 
L 672.752353 634.000848 
L 678.289773 634.000848 
" style="fill:none;stroke:#8c564b;stroke-linecap:square;stroke-width:1.5;"/>
   </g>
   <g id="line2d_19">
    <path clip-path="url(#pe1dc598e80)" d="M 130.085227 636.409091 
L 135.622647 636.409091 
L 141.160067 636.409091 
L 146.697486 636.409091 
L 152.234906 636.409091 
L 157.772326 636.409091 
L 163.309745 636.409091 
L 168.847165 636.409091 
L 174.384584 636.409091 
L 179.922004 636.409091 
L 185.459424 636.409091 
L 190.996843 636.409091 
L 196.534263 636.409091 
L 202.071683 636.409091 
L 207.609102 636.409091 
L 213.146522 636.409091 
L 218.683942 636.409091 
L 224.221361 636.409091 
L 229.758781 636.409091 
L 235.296201 636.409091 
L 240.83362 636.409091 
L 246.37104 636.409091 
L 251.90846 636.409091 
L 257.445879 636.409091 
L 262.983299 636.409091 
L 268.520719 636.409091 
L 274.058138 636.409091 
L 279.595558 636.409091 
L 285.132978 636.409091 
L 290.670397 636.409091 
L 296.207817 636.409091 
L 301.745236 636.409091 
L 307.282656 636.409091 
L 312.820076 636.409091 
L 318.357495 636.409091 
L 323.894915 636.409091 
L 329.432335 636.409091 
L 334.969754 636.409091 
L 340.507174 636.409091 
L 346.044594 636.409091 
L 351.582013 636.409091 
L 357.119433 636.409091 
L 362.656853 636.409091 
L 368.194272 636.409091 
L 373.731692 636.409091 
L 379.269112 636.409091 
L 384.806531 636.409091 
L 390.343951 636.409091 
L 395.881371 636.409091 
L 401.41879 636.409091 
L 406.95621 636.409091 
L 412.493629 636.409091 
L 418.031049 636.409091 
L 423.568469 636.409091 
L 429.105888 636.409091 
L 434.643308 636.409091 
L 440.180728 636.409091 
L 445.718147 636.409091 
L 451.255567 636.409091 
L 456.792987 636.409091 
L 462.330406 636.409091 
L 467.867826 636.409091 
L 473.405246 636.409091 
L 478.942665 636.409091 
L 484.480085 636.409091 
L 490.017505 636.409091 
L 495.554924 636.409091 
L 501.092344 636.409091 
L 506.629764 636.409091 
L 512.167183 636.409091 
L 517.704603 636.409091 
L 523.242022 636.409091 
L 528.779442 636.409091 
L 534.316862 636.409091 
L 539.854281 636.409091 
L 545.391701 636.409091 
L 550.929121 636.409091 
L 556.46654 636.409091 
L 562.00396 636.409091 
L 567.54138 636.409091 
L 573.078799 636.409091 
L 578.616219 636.409091 
L 584.153639 636.409091 
L 589.691058 636.409091 
L 595.228478 636.409091 
L 600.765898 636.409091 
L 606.303317 636.409091 
L 611.840737 636.409091 
L 617.378157 636.409091 
L 622.915576 636.409091 
L 628.452996 636.409091 
L 633.990416 636.409091 
L 639.527835 636.409091 
L 645.065255 636.409091 
L 650.602674 636.409091 
L 656.140094 636.409091 
L 661.677514 636.409091 
L 667.214933 636.409091 
L 672.752353 636.409091 
L 678.289773 636.409091 
" style="fill:none;stroke:#e377c2;stroke-linecap:square;stroke-width:1.5;"/>
   </g>
   <g id="line2d_20">
    <path clip-path="url(#pe1dc598e80)" d="M 130.085227 212.337459 
L 135.622647 538.977128 
L 141.160067 626.343984 
L 146.697486 626.343984 
L 152.234906 626.343984 
L 157.772326 626.343984 
L 163.309745 626.700957 
L 168.847165 626.700957 
L 174.384584 626.700957 
L 179.922004 626.700957 
L 185.459424 626.700957 
L 190.996843 626.700957 
L 196.534263 626.700957 
L 202.071683 626.700957 
L 207.609102 626.700957 
L 213.146522 626.700957 
L 218.683942 626.700957 
L 224.221361 626.700957 
L 229.758781 626.700957 
L 235.296201 626.700957 
L 240.83362 626.700957 
L 246.37104 626.700957 
L 251.90846 626.700957 
L 257.445879 628.777734 
L 262.983299 628.777734 
L 268.520719 628.777734 
L 274.058138 628.777734 
L 279.595558 629.482422 
L 285.132978 629.482422 
L 290.670397 629.482422 
L 296.207817 629.482422 
L 301.745236 631.035697 
L 307.282656 631.035697 
L 312.820076 631.035697 
L 318.357495 631.035697 
L 323.894915 631.035697 
L 329.432335 631.035697 
L 334.969754 631.035697 
L 340.507174 631.035697 
L 346.044594 631.035697 
L 351.582013 631.035697 
L 357.119433 631.035697 
L 362.656853 631.035697 
L 368.194272 631.035697 
L 373.731692 631.035697 
L 379.269112 631.957767 
L 384.806531 631.957767 
L 390.343951 631.957767 
L 395.881371 631.957767 
L 401.41879 631.957767 
L 406.95621 631.957767 
L 412.493629 631.957767 
L 418.031049 631.957767 
L 423.568469 631.957767 
L 429.105888 631.957767 
L 434.643308 631.957767 
L 440.180728 631.957767 
L 445.718147 631.957767 
L 451.255567 631.957767 
L 456.792987 631.957767 
L 462.330406 631.957767 
L 467.867826 631.957767 
L 473.405246 631.957767 
L 478.942665 631.957767 
L 484.480085 631.957767 
L 490.017505 631.957767 
L 495.554924 631.957767 
L 501.092344 632.728359 
L 506.629764 632.728359 
L 512.167183 632.728359 
L 517.704603 632.728359 
L 523.242022 632.728359 
L 528.779442 632.728359 
L 534.316862 632.728359 
L 539.854281 632.728359 
L 545.391701 632.728359 
L 550.929121 632.728359 
L 556.46654 632.728359 
L 562.00396 632.728359 
L 567.54138 632.728359 
L 573.078799 632.728359 
L 578.616219 632.974404 
L 584.153639 632.974404 
L 589.691058 632.974404 
L 595.228478 632.974404 
L 600.765898 632.974404 
L 606.303317 632.974404 
L 611.840737 632.974404 
L 617.378157 632.974404 
L 622.915576 632.974404 
L 628.452996 632.974404 
L 633.990416 632.974404 
L 639.527835 632.974404 
L 645.065255 632.974404 
L 650.602674 632.974404 
L 656.140094 632.974404 
L 661.677514 632.974404 
L 667.214933 632.974404 
L 672.752353 632.974404 
L 678.289773 632.974404 
" style="fill:none;stroke:#7f7f7f;stroke-linecap:square;stroke-width:1.5;"/>
   </g>
   <g id="line2d_21">
    <path clip-path="url(#pe1dc598e80)" d="M 130.085227 297.872632 
L 135.622647 523.08213 
L 141.160067 556.354008 
L 146.697486 609.133727 
L 152.234906 609.133727 
L 157.772326 623.772775 
L 163.309745 623.772775 
L 168.847165 623.772775 
L 174.384584 623.772775 
L 179.922004 623.772775 
L 185.459424 623.772775 
L 190.996843 623.772775 
L 196.534263 623.772775 
L 202.071683 623.772775 
L 207.609102 628.391962 
L 213.146522 628.391962 
L 218.683942 628.391962 
L 224.221361 628.391962 
L 229.758781 628.391962 
L 235.296201 628.391962 
L 240.83362 628.391962 
L 246.37104 628.391962 
L 251.90846 628.391962 
L 257.445879 628.391962 
L 262.983299 628.391962 
L 268.520719 628.391962 
L 274.058138 628.391962 
L 279.595558 628.391962 
L 285.132978 628.391962 
L 290.670397 628.391962 
L 296.207817 628.391962 
L 301.745236 628.391962 
L 307.282656 628.391962 
L 312.820076 628.391962 
L 318.357495 628.391962 
L 323.894915 628.391962 
L 329.432335 628.391962 
L 334.969754 628.391962 
L 340.507174 628.391962 
L 346.044594 628.391962 
L 351.582013 628.391962 
L 357.119433 628.391962 
L 362.656853 628.391962 
L 368.194272 628.391962 
L 373.731692 628.391962 
L 379.269112 628.391962 
L 384.806531 628.391962 
L 390.343951 628.391962 
L 395.881371 628.391962 
L 401.41879 628.391962 
L 406.95621 628.391962 
L 412.493629 628.391962 
L 418.031049 628.391962 
L 423.568469 628.391962 
L 429.105888 628.391962 
L 434.643308 628.391962 
L 440.180728 628.391962 
L 445.718147 628.391962 
L 451.255567 628.391962 
L 456.792987 628.391962 
L 462.330406 628.391962 
L 467.867826 628.391962 
L 473.405246 628.391962 
L 478.942665 628.391962 
L 484.480085 628.391962 
L 490.017505 628.391962 
L 495.554924 628.391962 
L 501.092344 628.391962 
L 506.629764 628.391962 
L 512.167183 628.391962 
L 517.704603 628.391962 
L 523.242022 628.391962 
L 528.779442 628.391962 
L 534.316862 628.391962 
L 539.854281 628.391962 
L 545.391701 628.391962 
L 550.929121 628.391962 
L 556.46654 628.391962 
L 562.00396 628.391962 
L 567.54138 628.642024 
L 573.078799 628.729752 
L 578.616219 628.729752 
L 584.153639 628.729752 
L 589.691058 628.944364 
L 595.228478 628.944364 
L 600.765898 628.944364 
L 606.303317 628.944364 
L 611.840737 628.944364 
L 617.378157 628.944364 
L 622.915576 628.944364 
L 628.452996 628.944364 
L 633.990416 628.944364 
L 639.527835 628.944364 
L 645.065255 628.944364 
L 650.602674 628.944364 
L 656.140094 628.944364 
L 661.677514 628.944364 
L 667.214933 628.995908 
L 672.752353 628.995908 
L 678.289773 629.583252 
" style="fill:none;stroke:#bcbd22;stroke-linecap:square;stroke-width:1.5;"/>
   </g>
   <g id="line2d_22">
    <path clip-path="url(#pe1dc598e80)" d="M 130.085227 387.653668 
L 135.622647 629.777766 
L 141.160067 629.777766 
L 146.697486 629.777766 
L 152.234906 629.777766 
L 157.772326 629.777766 
L 163.309745 629.777766 
L 168.847165 629.777766 
L 174.384584 629.777766 
L 179.922004 629.777766 
L 185.459424 629.777766 
L 190.996843 629.777766 
L 196.534263 629.777766 
L 202.071683 629.777766 
L 207.609102 629.777766 
L 213.146522 629.777766 
L 218.683942 629.777766 
L 224.221361 629.777766 
L 229.758781 629.777766 
L 235.296201 629.777766 
L 240.83362 629.777766 
L 246.37104 629.777766 
L 251.90846 629.777766 
L 257.445879 629.777766 
L 262.983299 629.777766 
L 268.520719 629.777766 
L 274.058138 629.777766 
L 279.595558 629.777766 
L 285.132978 629.777766 
L 290.670397 629.777766 
L 296.207817 629.777766 
L 301.745236 629.777766 
L 307.282656 629.777766 
L 312.820076 629.777766 
L 318.357495 629.777766 
L 323.894915 629.777766 
L 329.432335 629.777766 
L 334.969754 629.777766 
L 340.507174 629.777766 
L 346.044594 629.777766 
L 351.582013 630.698537 
L 357.119433 631.016701 
L 362.656853 631.016701 
L 368.194272 631.016701 
L 373.731692 631.107974 
L 379.269112 631.107974 
L 384.806531 631.107974 
L 390.343951 631.107974 
L 395.881371 633.433779 
L 401.41879 633.433779 
L 406.95621 633.433779 
L 412.493629 633.433779 
L 418.031049 633.433779 
L 423.568469 633.433779 
L 429.105888 633.433779 
L 434.643308 633.433779 
L 440.180728 633.433779 
L 445.718147 633.433779 
L 451.255567 633.433779 
L 456.792987 633.433779 
L 462.330406 633.732284 
L 467.867826 633.732284 
L 473.405246 633.732284 
L 478.942665 634.570001 
L 484.480085 634.570001 
L 490.017505 634.570001 
L 495.554924 634.570001 
L 501.092344 634.570001 
L 506.629764 634.570001 
L 512.167183 634.570001 
L 517.704603 634.570001 
L 523.242022 634.570001 
L 528.779442 634.570001 
L 534.316862 634.570001 
L 539.854281 634.570001 
L 545.391701 634.570001 
L 550.929121 634.570001 
L 556.46654 634.570001 
L 562.00396 634.570001 
L 567.54138 634.570001 
L 573.078799 634.570001 
L 578.616219 634.570001 
L 584.153639 634.570001 
L 589.691058 634.570001 
L 595.228478 634.570001 
L 600.765898 634.570001 
L 606.303317 634.570001 
L 611.840737 634.570001 
L 617.378157 634.570001 
L 622.915576 634.570001 
L 628.452996 634.570001 
L 633.990416 634.570001 
L 639.527835 634.570001 
L 645.065255 634.606301 
L 650.602674 634.606301 
L 656.140094 634.606301 
L 661.677514 634.606301 
L 667.214933 634.606301 
L 672.752353 634.606301 
L 678.289773 634.606301 
" style="fill:none;stroke:#17becf;stroke-linecap:square;stroke-width:1.5;"/>
   </g>
   <g id="line2d_23">
    <path clip-path="url(#pe1dc598e80)" d="M 130.085227 174.15701 
L 135.622647 554.898665 
L 141.160067 554.898665 
L 146.697486 626.969442 
L 152.234906 626.969442 
L 157.772326 626.969442 
L 163.309745 626.969442 
L 168.847165 626.969442 
L 174.384584 626.969442 
L 179.922004 626.969442 
L 185.459424 626.969442 
L 190.996843 626.969442 
L 196.534263 626.969442 
L 202.071683 626.969442 
L 207.609102 626.969442 
L 213.146522 626.969442 
L 218.683942 626.969442 
L 224.221361 626.969442 
L 229.758781 626.969442 
L 235.296201 626.969442 
L 240.83362 626.969442 
L 246.37104 626.969442 
L 251.90846 626.969442 
L 257.445879 626.969442 
L 262.983299 626.969442 
L 268.520719 626.969442 
L 274.058138 626.969442 
L 279.595558 626.969442 
L 285.132978 626.969442 
L 290.670397 626.969442 
L 296.207817 626.969442 
L 301.745236 626.969442 
L 307.282656 626.969442 
L 312.820076 626.969442 
L 318.357495 626.969442 
L 323.894915 626.969442 
L 329.432335 626.969442 
L 334.969754 626.969442 
L 340.507174 626.969442 
L 346.044594 626.969442 
L 351.582013 626.969442 
L 357.119433 626.969442 
L 362.656853 626.969442 
L 368.194272 626.969442 
L 373.731692 626.969442 
L 379.269112 626.969442 
L 384.806531 629.106287 
L 390.343951 629.106287 
L 395.881371 629.106287 
L 401.41879 629.106287 
L 406.95621 629.106287 
L 412.493629 629.106287 
L 418.031049 629.833823 
L 423.568469 629.833823 
L 429.105888 629.833823 
L 434.643308 629.833823 
L 440.180728 629.991229 
L 445.718147 629.991229 
L 451.255567 629.991229 
L 456.792987 632.644345 
L 462.330406 632.644345 
L 467.867826 632.644345 
L 473.405246 632.644345 
L 478.942665 632.644345 
L 484.480085 632.644345 
L 490.017505 632.644345 
L 495.554924 632.644345 
L 501.092344 632.644345 
L 506.629764 632.644345 
L 512.167183 632.644345 
L 517.704603 632.644345 
L 523.242022 632.644345 
L 528.779442 632.644345 
L 534.316862 633.022302 
L 539.854281 633.022302 
L 545.391701 633.022302 
L 550.929121 633.022302 
L 556.46654 633.022302 
L 562.00396 634.015042 
L 567.54138 634.015042 
L 573.078799 634.015042 
L 578.616219 634.015042 
L 584.153639 634.015042 
L 589.691058 634.015042 
L 595.228478 634.015042 
L 600.765898 634.015042 
L 606.303317 634.015042 
L 611.840737 634.015042 
L 617.378157 634.015042 
L 622.915576 634.015042 
L 628.452996 634.015042 
L 633.990416 634.015042 
L 639.527835 634.015042 
L 645.065255 634.015042 
L 650.602674 634.015042 
L 656.140094 634.015042 
L 661.677514 634.015042 
L 667.214933 634.015042 
L 672.752353 634.015042 
L 678.289773 634.015042 
" style="fill:none;stroke:#1f77b4;stroke-linecap:square;stroke-width:1.5;"/>
   </g>
   <g id="line2d_24">
    <path clip-path="url(#pe1dc598e80)" d="M 130.085227 628.641668 
L 135.622647 628.641668 
L 141.160067 631.487625 
L 146.697486 631.487625 
L 152.234906 631.487625 
L 157.772326 631.487625 
L 163.309745 631.487625 
L 168.847165 631.487625 
L 174.384584 631.487625 
L 179.922004 631.487625 
L 185.459424 631.487625 
L 190.996843 631.487625 
L 196.534263 631.487625 
L 202.071683 631.487625 
L 207.609102 631.487625 
L 213.146522 631.487625 
L 218.683942 633.280882 
L 224.221361 633.280882 
L 229.758781 633.280882 
L 235.296201 633.280882 
L 240.83362 633.280882 
L 246.37104 633.280882 
L 251.90846 633.280882 
L 257.445879 633.280882 
L 262.983299 633.280882 
L 268.520719 633.280882 
L 274.058138 633.280882 
L 279.595558 633.280882 
L 285.132978 633.280882 
L 290.670397 633.280882 
L 296.207817 633.280882 
L 301.745236 633.280882 
L 307.282656 633.280882 
L 312.820076 633.280882 
L 318.357495 633.280882 
L 323.894915 633.280882 
L 329.432335 633.280882 
L 334.969754 633.280882 
L 340.507174 633.280882 
L 346.044594 633.280882 
L 351.582013 633.280882 
L 357.119433 633.280882 
L 362.656853 633.280882 
L 368.194272 633.280882 
L 373.731692 633.280882 
L 379.269112 633.30392 
L 384.806531 633.30392 
L 390.343951 633.30392 
L 395.881371 633.30392 
L 401.41879 633.30392 
L 406.95621 633.30392 
L 412.493629 633.30392 
L 418.031049 633.749045 
L 423.568469 633.749045 
L 429.105888 633.749045 
L 434.643308 633.749045 
L 440.180728 633.749045 
L 445.718147 633.749045 
L 451.255567 633.749045 
L 456.792987 633.749045 
L 462.330406 633.815049 
L 467.867826 633.815049 
L 473.405246 633.815049 
L 478.942665 633.815049 
L 484.480085 634.627211 
L 490.017505 634.857004 
L 495.554924 634.857004 
L 501.092344 634.857004 
L 506.629764 634.857004 
L 512.167183 634.857004 
L 517.704603 634.900188 
L 523.242022 634.900188 
L 528.779442 634.900188 
L 534.316862 634.900188 
L 539.854281 634.900188 
L 545.391701 634.900188 
L 550.929121 634.900188 
L 556.46654 634.900188 
L 562.00396 634.900188 
L 567.54138 634.900188 
L 573.078799 634.900188 
L 578.616219 634.900188 
L 584.153639 634.900188 
L 589.691058 634.902803 
L 595.228478 634.902803 
L 600.765898 634.902803 
L 606.303317 634.902803 
L 611.840737 635.021105 
L 617.378157 635.08448 
L 622.915576 635.08448 
L 628.452996 635.08448 
L 633.990416 635.177962 
L 639.527835 635.177962 
L 645.065255 635.177962 
L 650.602674 635.177962 
L 656.140094 635.177962 
L 661.677514 635.177962 
L 667.214933 635.177962 
L 672.752353 635.177962 
L 678.289773 635.177962 
" style="fill:none;stroke:#ff7f0e;stroke-linecap:square;stroke-width:1.5;"/>
   </g>
   <g id="line2d_25">
    <path clip-path="url(#pe1dc598e80)" d="M 130.085227 565.187576 
L 135.622647 565.187576 
L 141.160067 565.187576 
L 146.697486 565.187576 
L 152.234906 630.203004 
L 157.772326 630.203004 
L 163.309745 630.203004 
L 168.847165 630.203004 
L 174.384584 630.203004 
L 179.922004 630.203004 
L 185.459424 630.203004 
L 190.996843 630.203004 
L 196.534263 630.203004 
L 202.071683 630.203004 
L 207.609102 630.203004 
L 213.146522 630.203004 
L 218.683942 630.203004 
L 224.221361 630.203004 
L 229.758781 630.203004 
L 235.296201 630.203004 
L 240.83362 630.203004 
L 246.37104 630.203004 
L 251.90846 630.203004 
L 257.445879 630.203004 
L 262.983299 630.203004 
L 268.520719 630.203004 
L 274.058138 630.203004 
L 279.595558 630.203004 
L 285.132978 630.203004 
L 290.670397 630.203004 
L 296.207817 630.203004 
L 301.745236 630.203004 
L 307.282656 630.203004 
L 312.820076 630.811948 
L 318.357495 630.811948 
L 323.894915 630.811948 
L 329.432335 630.811948 
L 334.969754 630.811948 
L 340.507174 630.811948 
L 346.044594 630.811948 
L 351.582013 630.811948 
L 357.119433 630.811948 
L 362.656853 630.811948 
L 368.194272 630.811948 
L 373.731692 630.811948 
L 379.269112 630.811948 
L 384.806531 630.811948 
L 390.343951 630.811948 
L 395.881371 630.811948 
L 401.41879 630.811948 
L 406.95621 630.811948 
L 412.493629 630.811948 
L 418.031049 630.811948 
L 423.568469 630.907353 
L 429.105888 630.907353 
L 434.643308 632.065674 
L 440.180728 632.065674 
L 445.718147 632.686041 
L 451.255567 632.686041 
L 456.792987 632.686041 
L 462.330406 632.686041 
L 467.867826 632.686041 
L 473.405246 632.686041 
L 478.942665 632.689622 
L 484.480085 633.401213 
L 490.017505 633.401213 
L 495.554924 633.552683 
L 501.092344 633.552683 
L 506.629764 633.552683 
L 512.167183 633.552683 
L 517.704603 633.552683 
L 523.242022 633.552683 
L 528.779442 633.552683 
L 534.316862 633.552683 
L 539.854281 633.918171 
L 545.391701 633.918171 
L 550.929121 633.918171 
L 556.46654 633.918171 
L 562.00396 633.918171 
L 567.54138 633.918171 
L 573.078799 633.918171 
L 578.616219 633.918171 
L 584.153639 633.918171 
L 589.691058 634.235222 
L 595.228478 634.235222 
L 600.765898 634.235222 
L 606.303317 634.235222 
L 611.840737 634.235222 
L 617.378157 634.235222 
L 622.915576 634.235222 
L 628.452996 634.235222 
L 633.990416 634.235222 
L 639.527835 634.235222 
L 645.065255 634.323493 
L 650.602674 634.323493 
L 656.140094 634.323493 
L 661.677514 634.323493 
L 667.214933 634.323493 
L 672.752353 634.323493 
L 678.289773 634.323493 
" style="fill:none;stroke:#2ca02c;stroke-linecap:square;stroke-width:1.5;"/>
   </g>
   <g id="line2d_26">
    <path clip-path="url(#pe1dc598e80)" d="M 130.085227 624.686619 
L 135.622647 624.686619 
L 141.160067 624.686619 
L 146.697486 624.686619 
L 152.234906 624.686619 
L 157.772326 624.686619 
L 163.309745 624.686619 
L 168.847165 624.686619 
L 174.384584 626.830787 
L 179.922004 626.830787 
L 185.459424 626.830787 
L 190.996843 626.830787 
L 196.534263 626.830787 
L 202.071683 626.830787 
L 207.609102 626.830787 
L 213.146522 626.830787 
L 218.683942 626.830787 
L 224.221361 626.830787 
L 229.758781 626.830787 
L 235.296201 626.830787 
L 240.83362 626.830787 
L 246.37104 626.830787 
L 251.90846 626.830787 
L 257.445879 626.830787 
L 262.983299 626.830787 
L 268.520719 626.830787 
L 274.058138 626.830787 
L 279.595558 626.830787 
L 285.132978 626.830787 
L 290.670397 626.830787 
L 296.207817 626.830787 
L 301.745236 626.830787 
L 307.282656 626.830787 
L 312.820076 626.830787 
L 318.357495 626.830787 
L 323.894915 626.830787 
L 329.432335 626.830787 
L 334.969754 626.830787 
L 340.507174 626.830787 
L 346.044594 626.830787 
L 351.582013 626.830787 
L 357.119433 626.830787 
L 362.656853 626.830787 
L 368.194272 626.830787 
L 373.731692 626.830787 
L 379.269112 626.830787 
L 384.806531 626.830787 
L 390.343951 626.830787 
L 395.881371 626.830787 
L 401.41879 626.830787 
L 406.95621 626.830787 
L 412.493629 626.830787 
L 418.031049 626.830787 
L 423.568469 626.830787 
L 429.105888 626.830787 
L 434.643308 626.830787 
L 440.180728 626.830787 
L 445.718147 626.830787 
L 451.255567 626.830787 
L 456.792987 626.830787 
L 462.330406 626.830787 
L 467.867826 626.830787 
L 473.405246 626.830787 
L 478.942665 626.830787 
L 484.480085 626.830787 
L 490.017505 626.830787 
L 495.554924 626.830787 
L 501.092344 626.830787 
L 506.629764 626.830787 
L 512.167183 626.830787 
L 517.704603 626.830787 
L 523.242022 626.830787 
L 528.779442 626.830787 
L 534.316862 626.830787 
L 539.854281 626.830787 
L 545.391701 626.830787 
L 550.929121 626.830787 
L 556.46654 626.830787 
L 562.00396 626.830787 
L 567.54138 626.830787 
L 573.078799 626.830787 
L 578.616219 626.830787 
L 584.153639 626.830787 
L 589.691058 626.830787 
L 595.228478 626.830787 
L 600.765898 626.830787 
L 606.303317 626.830787 
L 611.840737 626.830787 
L 617.378157 626.830787 
L 622.915576 626.830787 
L 628.452996 626.830787 
L 633.990416 626.830787 
L 639.527835 626.830787 
L 645.065255 626.830787 
L 650.602674 626.830787 
L 656.140094 626.830787 
L 661.677514 626.830787 
L 667.214933 626.830787 
L 672.752353 626.830787 
L 678.289773 626.830787 
" style="fill:none;stroke:#d62728;stroke-linecap:square;stroke-width:1.5;"/>
   </g>
   <g id="line2d_27">
    <path clip-path="url(#pe1dc598e80)" d="M 130.085227 369.025033 
L 135.622647 418.470604 
L 141.160067 598.195294 
L 146.697486 628.175626 
L 152.234906 628.175626 
L 157.772326 628.175626 
L 163.309745 628.175626 
L 168.847165 628.175626 
L 174.384584 628.175626 
L 179.922004 628.175626 
L 185.459424 628.175626 
L 190.996843 628.175626 
L 196.534263 628.175626 
L 202.071683 628.175626 
L 207.609102 628.175626 
L 213.146522 628.175626 
L 218.683942 628.175626 
L 224.221361 628.175626 
L 229.758781 628.175626 
L 235.296201 628.175626 
L 240.83362 628.175626 
L 246.37104 628.175626 
L 251.90846 628.175626 
L 257.445879 628.175626 
L 262.983299 628.175626 
L 268.520719 628.175626 
L 274.058138 628.175626 
L 279.595558 628.175626 
L 285.132978 628.175626 
L 290.670397 629.53785 
L 296.207817 629.53785 
L 301.745236 629.53785 
L 307.282656 629.53785 
L 312.820076 629.53785 
L 318.357495 629.53785 
L 323.894915 629.53785 
L 329.432335 629.53785 
L 334.969754 629.53785 
L 340.507174 629.53785 
L 346.044594 629.53785 
L 351.582013 629.53785 
L 357.119433 629.53785 
L 362.656853 629.53785 
L 368.194272 629.53785 
L 373.731692 629.53785 
L 379.269112 629.53785 
L 384.806531 629.53785 
L 390.343951 629.53785 
L 395.881371 629.53785 
L 401.41879 629.53785 
L 406.95621 629.53785 
L 412.493629 629.53785 
L 418.031049 629.53785 
L 423.568469 629.53785 
L 429.105888 629.53785 
L 434.643308 629.53785 
L 440.180728 629.53785 
L 445.718147 629.53785 
L 451.255567 629.53785 
L 456.792987 629.53785 
L 462.330406 629.53785 
L 467.867826 629.53785 
L 473.405246 629.53785 
L 478.942665 630.111463 
L 484.480085 631.043402 
L 490.017505 631.043402 
L 495.554924 631.043402 
L 501.092344 631.043402 
L 506.629764 631.043402 
L 512.167183 631.043402 
L 517.704603 631.043402 
L 523.242022 631.043402 
L 528.779442 631.096376 
L 534.316862 631.096376 
L 539.854281 631.096376 
L 545.391701 631.096376 
L 550.929121 631.461605 
L 556.46654 631.538121 
L 562.00396 631.538121 
L 567.54138 631.538121 
L 573.078799 631.538121 
L 578.616219 631.538121 
L 584.153639 631.538121 
L 589.691058 631.538121 
L 595.228478 631.538121 
L 600.765898 631.538121 
L 606.303317 631.538121 
L 611.840737 631.538121 
L 617.378157 631.538121 
L 622.915576 631.619715 
L 628.452996 631.744982 
L 633.990416 631.744982 
L 639.527835 631.744982 
L 645.065255 631.744982 
L 650.602674 631.744982 
L 656.140094 631.744982 
L 661.677514 631.744982 
L 667.214933 631.744982 
L 672.752353 631.744982 
L 678.289773 631.744982 
" style="fill:none;stroke:#9467bd;stroke-linecap:square;stroke-width:1.5;"/>
   </g>
   <g id="line2d_28">
    <path clip-path="url(#pe1dc598e80)" d="M 130.085227 200.401161 
L 135.622647 539.35411 
L 141.160067 603.127157 
L 146.697486 633.032284 
L 152.234906 633.032284 
L 157.772326 633.032284 
L 163.309745 633.032284 
L 168.847165 633.032284 
L 174.384584 633.032284 
L 179.922004 633.032284 
L 185.459424 633.032284 
L 190.996843 633.450223 
L 196.534263 633.450223 
L 202.071683 633.450223 
L 207.609102 633.450223 
L 213.146522 633.450223 
L 218.683942 633.450223 
L 224.221361 633.450223 
L 229.758781 633.450223 
L 235.296201 633.450223 
L 240.83362 633.450223 
L 246.37104 633.450223 
L 251.90846 633.450223 
L 257.445879 633.450223 
L 262.983299 633.450223 
L 268.520719 633.450223 
L 274.058138 633.450223 
L 279.595558 633.619278 
L 285.132978 633.619278 
L 290.670397 633.619278 
L 296.207817 633.619278 
L 301.745236 633.619278 
L 307.282656 633.619278 
L 312.820076 633.619278 
L 318.357495 633.619278 
L 323.894915 633.619278 
L 329.432335 633.619278 
L 334.969754 633.654297 
L 340.507174 633.654297 
L 346.044594 633.654297 
L 351.582013 633.74553 
L 357.119433 634.565568 
L 362.656853 634.565568 
L 368.194272 634.565568 
L 373.731692 634.565568 
L 379.269112 634.565568 
L 384.806531 634.565568 
L 390.343951 634.565568 
L 395.881371 634.565568 
L 401.41879 634.565568 
L 406.95621 634.565568 
L 412.493629 634.565568 
L 418.031049 634.565568 
L 423.568469 634.565568 
L 429.105888 634.565568 
L 434.643308 634.565568 
L 440.180728 634.565568 
L 445.718147 634.565568 
L 451.255567 634.565568 
L 456.792987 634.565568 
L 462.330406 634.565568 
L 467.867826 634.565568 
L 473.405246 634.565568 
L 478.942665 634.565568 
L 484.480085 634.565568 
L 490.017505 634.565568 
L 495.554924 634.565568 
L 501.092344 634.565568 
L 506.629764 634.565568 
L 512.167183 634.629893 
L 517.704603 634.629893 
L 523.242022 634.629893 
L 528.779442 634.629893 
L 534.316862 634.629893 
L 539.854281 634.629893 
L 545.391701 634.629893 
L 550.929121 634.629893 
L 556.46654 634.629893 
L 562.00396 634.629893 
L 567.54138 634.629893 
L 573.078799 634.636811 
L 578.616219 634.636811 
L 584.153639 634.636811 
L 589.691058 634.636811 
L 595.228478 634.636811 
L 600.765898 634.636811 
L 606.303317 634.636811 
L 611.840737 634.636811 
L 617.378157 634.636811 
L 622.915576 634.636811 
L 628.452996 634.636811 
L 633.990416 634.636811 
L 639.527835 634.636811 
L 645.065255 634.677541 
L 650.602674 634.677541 
L 656.140094 634.677541 
L 661.677514 634.677541 
L 667.214933 634.708942 
L 672.752353 634.708942 
L 678.289773 634.708942 
" style="fill:none;stroke:#8c564b;stroke-linecap:square;stroke-width:1.5;"/>
   </g>
   <g id="line2d_29">
    <path clip-path="url(#pe1dc598e80)" d="M 130.085227 479.826889 
L 135.622647 536.78865 
L 141.160067 568.72183 
L 146.697486 621.178275 
L 152.234906 630.172118 
L 157.772326 630.172118 
L 163.309745 630.172118 
L 168.847165 630.172118 
L 174.384584 630.172118 
L 179.922004 630.172118 
L 185.459424 630.172118 
L 190.996843 630.172118 
L 196.534263 630.172118 
L 202.071683 630.172118 
L 207.609102 630.172118 
L 213.146522 630.172118 
L 218.683942 630.172118 
L 224.221361 630.172118 
L 229.758781 630.172118 
L 235.296201 630.172118 
L 240.83362 630.172118 
L 246.37104 630.172118 
L 251.90846 630.172118 
L 257.445879 630.172118 
L 262.983299 630.172118 
L 268.520719 630.172118 
L 274.058138 630.172118 
L 279.595558 630.51389 
L 285.132978 630.51389 
L 290.670397 630.51389 
L 296.207817 630.51389 
L 301.745236 630.51389 
L 307.282656 630.51389 
L 312.820076 630.51389 
L 318.357495 630.51389 
L 323.894915 630.51389 
L 329.432335 630.51389 
L 334.969754 631.639764 
L 340.507174 631.639764 
L 346.044594 633.082272 
L 351.582013 633.082272 
L 357.119433 633.082272 
L 362.656853 633.082272 
L 368.194272 633.082272 
L 373.731692 633.082272 
L 379.269112 633.082272 
L 384.806531 633.082272 
L 390.343951 633.082272 
L 395.881371 633.645887 
L 401.41879 633.645887 
L 406.95621 633.645887 
L 412.493629 633.645887 
L 418.031049 633.755546 
L 423.568469 633.755546 
L 429.105888 633.755546 
L 434.643308 633.755546 
L 440.180728 633.755546 
L 445.718147 634.140093 
L 451.255567 634.140093 
L 456.792987 634.140093 
L 462.330406 634.400718 
L 467.867826 634.400718 
L 473.405246 634.400718 
L 478.942665 634.400718 
L 484.480085 634.400718 
L 490.017505 634.400718 
L 495.554924 634.400718 
L 501.092344 634.450401 
L 506.629764 634.550942 
L 512.167183 634.550942 
L 517.704603 634.550942 
L 523.242022 634.550942 
L 528.779442 634.695374 
L 534.316862 634.695374 
L 539.854281 634.695374 
L 545.391701 634.695374 
L 550.929121 634.737844 
L 556.46654 634.737844 
L 562.00396 634.737844 
L 567.54138 634.737844 
L 573.078799 634.737844 
L 578.616219 634.756302 
L 584.153639 634.756302 
L 589.691058 634.756302 
L 595.228478 634.756302 
L 600.765898 634.756302 
L 606.303317 634.756302 
L 611.840737 634.756302 
L 617.378157 634.865897 
L 622.915576 634.865897 
L 628.452996 634.865897 
L 633.990416 634.865897 
L 639.527835 634.865897 
L 645.065255 634.865897 
L 650.602674 634.865897 
L 656.140094 634.865897 
L 661.677514 634.865897 
L 667.214933 634.888276 
L 672.752353 634.888276 
L 678.289773 634.888276 
" style="fill:none;stroke:#e377c2;stroke-linecap:square;stroke-width:1.5;"/>
   </g>
   <g id="line2d_30">
    <path clip-path="url(#pe1dc598e80)" d="M 130.085227 481.460379 
L 135.622647 629.9367 
L 141.160067 629.9367 
L 146.697486 629.9367 
L 152.234906 629.9367 
L 157.772326 629.9367 
L 163.309745 629.9367 
L 168.847165 629.9367 
L 174.384584 629.9367 
L 179.922004 629.9367 
L 185.459424 629.9367 
L 190.996843 629.9367 
L 196.534263 629.9367 
L 202.071683 629.9367 
L 207.609102 629.9367 
L 213.146522 629.9367 
L 218.683942 629.9367 
L 224.221361 629.9367 
L 229.758781 629.9367 
L 235.296201 629.9367 
L 240.83362 629.9367 
L 246.37104 629.9367 
L 251.90846 629.9367 
L 257.445879 634.430657 
L 262.983299 634.430657 
L 268.520719 634.430657 
L 274.058138 634.430657 
L 279.595558 634.430657 
L 285.132978 634.430657 
L 290.670397 634.430657 
L 296.207817 634.430657 
L 301.745236 634.430657 
L 307.282656 634.430657 
L 312.820076 634.430657 
L 318.357495 634.430657 
L 323.894915 634.430657 
L 329.432335 634.430657 
L 334.969754 634.430657 
L 340.507174 634.430657 
L 346.044594 634.430657 
L 351.582013 634.430657 
L 357.119433 634.430657 
L 362.656853 634.430657 
L 368.194272 634.430657 
L 373.731692 634.820262 
L 379.269112 634.820262 
L 384.806531 634.820262 
L 390.343951 634.820262 
L 395.881371 634.820262 
L 401.41879 634.820262 
L 406.95621 634.820262 
L 412.493629 634.820262 
L 418.031049 634.820262 
L 423.568469 634.820262 
L 429.105888 634.820262 
L 434.643308 634.820262 
L 440.180728 634.820262 
L 445.718147 634.820262 
L 451.255567 634.820262 
L 456.792987 634.820262 
L 462.330406 634.820262 
L 467.867826 634.820262 
L 473.405246 634.820262 
L 478.942665 634.820262 
L 484.480085 634.820262 
L 490.017505 634.820262 
L 495.554924 634.820262 
L 501.092344 634.820262 
L 506.629764 634.820262 
L 512.167183 634.820262 
L 517.704603 634.820262 
L 523.242022 634.820262 
L 528.779442 634.820262 
L 534.316862 634.820262 
L 539.854281 634.820262 
L 545.391701 634.820262 
L 550.929121 634.906106 
L 556.46654 634.906106 
L 562.00396 634.906106 
L 567.54138 634.906106 
L 573.078799 634.906106 
L 578.616219 634.906106 
L 584.153639 634.906106 
L 589.691058 634.906106 
L 595.228478 634.9151 
L 600.765898 634.9151 
L 606.303317 634.9151 
L 611.840737 634.9151 
L 617.378157 634.9151 
L 622.915576 634.9151 
L 628.452996 634.9151 
L 633.990416 634.923138 
L 639.527835 634.923138 
L 645.065255 634.923138 
L 650.602674 634.923138 
L 656.140094 634.923138 
L 661.677514 634.923138 
L 667.214933 635.020688 
L 672.752353 635.020688 
L 678.289773 635.020688 
" style="fill:none;stroke:#7f7f7f;stroke-linecap:square;stroke-width:1.5;"/>
   </g>
   <g id="line2d_31">
    <path clip-path="url(#pe1dc598e80)" d="M 130.085227 393.874141 
L 135.622647 393.874141 
L 141.160067 619.703558 
L 146.697486 631.359197 
L 152.234906 631.359197 
L 157.772326 631.359197 
L 163.309745 631.359197 
L 168.847165 631.359197 
L 174.384584 631.359197 
L 179.922004 631.359197 
L 185.459424 631.359197 
L 190.996843 631.359197 
L 196.534263 631.359197 
L 202.071683 631.359197 
L 207.609102 631.359197 
L 213.146522 631.359197 
L 218.683942 631.359197 
L 224.221361 631.359197 
L 229.758781 631.359197 
L 235.296201 631.359197 
L 240.83362 631.359197 
L 246.37104 631.359197 
L 251.90846 631.359197 
L 257.445879 631.359197 
L 262.983299 631.359197 
L 268.520719 631.359197 
L 274.058138 631.359197 
L 279.595558 631.359197 
L 285.132978 631.359197 
L 290.670397 631.359197 
L 296.207817 631.359197 
L 301.745236 631.359197 
L 307.282656 631.359197 
L 312.820076 631.359197 
L 318.357495 631.359197 
L 323.894915 631.359197 
L 329.432335 631.359197 
L 334.969754 631.359197 
L 340.507174 631.359197 
L 346.044594 631.359197 
L 351.582013 631.359197 
L 357.119433 631.359197 
L 362.656853 631.470806 
L 368.194272 631.470806 
L 373.731692 631.470806 
L 379.269112 631.470806 
L 384.806531 631.470806 
L 390.343951 631.470806 
L 395.881371 632.425365 
L 401.41879 632.425365 
L 406.95621 632.425365 
L 412.493629 633.334644 
L 418.031049 633.783457 
L 423.568469 634.197962 
L 429.105888 634.197962 
L 434.643308 634.197962 
L 440.180728 634.197962 
L 445.718147 634.197962 
L 451.255567 634.197962 
L 456.792987 634.197962 
L 462.330406 634.197962 
L 467.867826 634.197962 
L 473.405246 634.197962 
L 478.942665 634.197962 
L 484.480085 634.197962 
L 490.017505 634.197962 
L 495.554924 634.197962 
L 501.092344 634.197962 
L 506.629764 634.197962 
L 512.167183 634.197962 
L 517.704603 634.197962 
L 523.242022 634.197962 
L 528.779442 634.197962 
L 534.316862 634.197962 
L 539.854281 634.200996 
L 545.391701 634.285024 
L 550.929121 634.308961 
L 556.46654 634.308961 
L 562.00396 634.308961 
L 567.54138 634.308961 
L 573.078799 634.321458 
L 578.616219 634.321458 
L 584.153639 634.321458 
L 589.691058 634.321458 
L 595.228478 634.57318 
L 600.765898 634.57318 
L 606.303317 634.57318 
L 611.840737 634.57318 
L 617.378157 634.57318 
L 622.915576 634.57318 
L 628.452996 634.57318 
L 633.990416 634.57318 
L 639.527835 634.57318 
L 645.065255 634.57318 
L 650.602674 634.57318 
L 656.140094 634.57318 
L 661.677514 634.57318 
L 667.214933 634.57318 
L 672.752353 634.57318 
L 678.289773 634.57318 
" style="fill:none;stroke:#bcbd22;stroke-linecap:square;stroke-width:1.5;"/>
   </g>
   <g id="line2d_32">
    <path clip-path="url(#pe1dc598e80)" d="M 130.085227 278.599551 
L 135.622647 312.504526 
L 141.160067 445.692311 
L 146.697486 513.321836 
L 152.234906 580.392055 
L 157.772326 631.579876 
L 163.309745 631.579876 
L 168.847165 631.579876 
L 174.384584 631.579876 
L 179.922004 631.579876 
L 185.459424 631.579876 
L 190.996843 631.579876 
L 196.534263 631.579876 
L 202.071683 631.579876 
L 207.609102 631.579876 
L 213.146522 631.579876 
L 218.683942 631.579876 
L 224.221361 631.579876 
L 229.758781 631.579876 
L 235.296201 631.579876 
L 240.83362 631.579876 
L 246.37104 631.579876 
L 251.90846 631.579876 
L 257.445879 631.579876 
L 262.983299 631.579876 
L 268.520719 631.579876 
L 274.058138 631.579876 
L 279.595558 631.579876 
L 285.132978 631.579876 
L 290.670397 631.579876 
L 296.207817 631.579876 
L 301.745236 631.579876 
L 307.282656 631.579876 
L 312.820076 631.579876 
L 318.357495 631.579876 
L 323.894915 631.579876 
L 329.432335 631.579876 
L 334.969754 631.579876 
L 340.507174 631.579876 
L 346.044594 631.579876 
L 351.582013 631.579876 
L 357.119433 631.579876 
L 362.656853 631.579876 
L 368.194272 631.579876 
L 373.731692 631.579876 
L 379.269112 631.579876 
L 384.806531 631.579876 
L 390.343951 631.579876 
L 395.881371 631.579876 
L 401.41879 631.579876 
L 406.95621 631.579876 
L 412.493629 631.579876 
L 418.031049 631.579876 
L 423.568469 631.579876 
L 429.105888 631.579876 
L 434.643308 631.579876 
L 440.180728 631.579876 
L 445.718147 631.579876 
L 451.255567 631.579876 
L 456.792987 631.579876 
L 462.330406 632.122642 
L 467.867826 632.122642 
L 473.405246 632.122642 
L 478.942665 632.122642 
L 484.480085 632.545975 
L 490.017505 632.545975 
L 495.554924 632.545975 
L 501.092344 632.545975 
L 506.629764 632.545975 
L 512.167183 632.545975 
L 517.704603 632.545975 
L 523.242022 632.545975 
L 528.779442 632.545975 
L 534.316862 632.545975 
L 539.854281 632.545975 
L 545.391701 632.545975 
L 550.929121 632.545975 
L 556.46654 632.545975 
L 562.00396 632.545975 
L 567.54138 632.545975 
L 573.078799 632.545975 
L 578.616219 632.545975 
L 584.153639 632.545975 
L 589.691058 632.545975 
L 595.228478 632.545975 
L 600.765898 632.545975 
L 606.303317 632.545975 
L 611.840737 632.545975 
L 617.378157 632.545975 
L 622.915576 632.545975 
L 628.452996 632.545975 
L 633.990416 632.545975 
L 639.527835 632.545975 
L 645.065255 632.545975 
L 650.602674 632.545975 
L 656.140094 632.545975 
L 661.677514 632.545975 
L 667.214933 632.778723 
L 672.752353 632.778723 
L 678.289773 632.778723 
" style="fill:none;stroke:#17becf;stroke-linecap:square;stroke-width:1.5;"/>
   </g>
   <g id="patch_3">
    <path d="M 102.675 665.2 
L 102.675 31.8 
" style="fill:none;stroke:#000000;stroke-linecap:square;stroke-linejoin:miter;stroke-width:0.8;"/>
   </g>
   <g id="patch_4">
    <path d="M 705.7 665.2 
L 705.7 31.8 
" style="fill:none;stroke:#000000;stroke-linecap:square;stroke-linejoin:miter;stroke-width:0.8;"/>
   </g>
   <g id="patch_5">
    <path d="M 102.675 665.2 
L 705.7 665.2 
" style="fill:none;stroke:#000000;stroke-linecap:square;stroke-linejoin:miter;stroke-width:0.8;"/>
   </g>
   <g id="patch_6">
    <path d="M 102.675 31.8 
L 705.7 31.8 
" style="fill:none;stroke:#000000;stroke-linecap:square;stroke-linejoin:miter;stroke-width:0.8;"/>
   </g>
   <g id="text_15">
    <!-- Vector index 0 -->
    <defs>
     <path d="M 28.609375 0 
L 0.78125 72.90625 
L 11.078125 72.90625 
L 34.1875 11.53125 
L 57.328125 72.90625 
L 67.578125 72.90625 
L 39.796875 0 
z
" id="DejaVuSans-86"/>
     <path d="M 48.78125 52.59375 
L 48.78125 44.1875 
Q 44.96875 46.296875 41.140625 47.34375 
Q 37.3125 48.390625 33.40625 48.390625 
Q 24.65625 48.390625 19.8125 42.84375 
Q 14.984375 37.3125 14.984375 27.296875 
Q 14.984375 17.28125 19.8125 11.734375 
Q 24.65625 6.203125 33.40625 6.203125 
Q 37.3125 6.203125 41.140625 7.25 
Q 44.96875 8.296875 48.78125 10.40625 
L 48.78125 2.09375 
Q 45.015625 0.34375 40.984375 -0.53125 
Q 36.96875 -1.421875 32.421875 -1.421875 
Q 20.0625 -1.421875 12.78125 6.34375 
Q 5.515625 14.109375 5.515625 27.296875 
Q 5.515625 40.671875 12.859375 48.328125 
Q 20.21875 56 33.015625 56 
Q 37.15625 56 41.109375 55.140625 
Q 45.0625 54.296875 48.78125 52.59375 
z
" id="DejaVuSans-99"/>
     <path id="DejaVuSans-32"/>
     <path d="M 45.40625 46.390625 
L 45.40625 75.984375 
L 54.390625 75.984375 
L 54.390625 0 
L 45.40625 0 
L 45.40625 8.203125 
Q 42.578125 3.328125 38.25 0.953125 
Q 33.9375 -1.421875 27.875 -1.421875 
Q 17.96875 -1.421875 11.734375 6.484375 
Q 5.515625 14.40625 5.515625 27.296875 
Q 5.515625 40.1875 11.734375 48.09375 
Q 17.96875 56 27.875 56 
Q 33.9375 56 38.25 53.625 
Q 42.578125 51.265625 45.40625 46.390625 
z
M 14.796875 27.296875 
Q 14.796875 17.390625 18.875 11.75 
Q 22.953125 6.109375 30.078125 6.109375 
Q 37.203125 6.109375 41.296875 11.75 
Q 45.40625 17.390625 45.40625 27.296875 
Q 45.40625 37.203125 41.296875 42.84375 
Q 37.203125 48.484375 30.078125 48.484375 
Q 22.953125 48.484375 18.875 42.84375 
Q 14.796875 37.203125 14.796875 27.296875 
z
" id="DejaVuSans-100"/>
     <path d="M 54.890625 54.6875 
L 35.109375 28.078125 
L 55.90625 0 
L 45.3125 0 
L 29.390625 21.484375 
L 13.484375 0 
L 2.875 0 
L 24.125 28.609375 
L 4.6875 54.6875 
L 15.28125 54.6875 
L 29.78125 35.203125 
L 44.28125 54.6875 
z
" id="DejaVuSans-120"/>
    </defs>
    <g transform="translate(331.303125 25.8)scale(0.2 -0.2)">
     <use xlink:href="#DejaVuSans-86"/>
     <use x="68.298828" xlink:href="#DejaVuSans-101"/>
     <use x="129.822266" xlink:href="#DejaVuSans-99"/>
     <use x="184.802734" xlink:href="#DejaVuSans-116"/>
     <use x="224.011719" xlink:href="#DejaVuSans-111"/>
     <use x="285.193359" xlink:href="#DejaVuSans-114"/>
     <use x="326.306641" xlink:href="#DejaVuSans-32"/>
     <use x="358.09375" xlink:href="#DejaVuSans-105"/>
     <use x="385.876953" xlink:href="#DejaVuSans-110"/>
     <use x="449.255859" xlink:href="#DejaVuSans-100"/>
     <use x="512.732422" xlink:href="#DejaVuSans-101"/>
     <use x="574.240234" xlink:href="#DejaVuSans-120"/>
     <use x="633.419922" xlink:href="#DejaVuSans-32"/>
     <use x="665.207031" xlink:href="#DejaVuSans-48"/>
    </g>
   </g>
  </g>
 </g>
 <defs>
  <clipPath id="pe1dc598e80">
   <rect height="633.4" width="603.025" x="102.675" y="31.8"/>
  </clipPath>
 </defs>
</svg>
